<svg width="120" height="60" viewBox="0 0 120 60" fill="none" xmlns="http://www.w3.org/2000/svg">
<path d="M16.147 5.15399L17.237 7.20399C17.4743 7.57378 17.7505 7.91707 18.061 8.22799C18.974 9.14099 19.843 10.098 20.621 11.123C22.469 13.55 23.716 16.245 24.607 19.163C25.141 20.945 25.431 22.771 25.453 24.619C25.543 30.142 23.649 34.885 19.819 38.827C19.1984 39.4519 18.5282 40.0254 17.815 40.542C17.435 40.542 17.258 40.242 17.102 39.985C16.802 39.485 16.634 38.938 16.545 38.382C16.411 37.714 16.322 37.046 16.367 36.355V36.043C16.345 35.976 16.011 5.31099 16.144 5.15499L16.147 5.15399Z" fill="#FF304F"/>
<path d="M16.147 5.08802C16.102 4.99802 16.057 5.06602 16.013 5.11002C16.035 5.55502 15.879 5.95602 15.633 6.33502C15.366 6.71502 15.009 7.00302 14.653 7.31502C12.671 9.03002 11.113 11.101 9.865 13.417C8.217 16.535 7.349 19.875 7.105 23.394C6.995 24.664 7.505 29.14 7.907 30.431C8.997 33.861 10.957 36.733 13.507 39.227C14.131 39.827 14.799 40.385 15.489 40.919C15.689 40.919 15.712 40.741 15.756 40.607C15.8437 40.3226 15.9106 40.0322 15.956 39.738C16.156 38.625 16.268 37.511 16.401 36.398L16.156 5.08802H16.147Z" fill="#FF304F"/>
<path d="M17.24 41.9C17.285 41.388 17.54 40.965 17.797 40.542C17.53 40.432 17.329 40.208 17.173 39.962C17.039 39.739 16.928 39.462 16.839 39.227C16.527 38.292 16.459 37.312 16.371 36.354V35.774C16.261 35.864 16.237 36.62 16.237 36.732C16.17 37.756 16.037 38.759 15.837 39.738C15.77 40.138 15.727 40.54 15.481 40.896C15.481 40.941 15.481 40.986 15.503 41.052C15.903 42.232 16.015 43.435 16.083 44.66V45.105C16.083 45.639 16.061 45.528 16.506 45.705C16.684 45.772 16.886 45.795 17.063 45.928C17.197 45.928 17.219 45.818 17.219 45.728L17.152 44.993V42.943C17.13 42.587 17.197 42.23 17.242 41.896L17.24 41.9Z" fill="#FF304F"/>
<path d="M34.1507 32.5863V34.7072C34.1484 34.7912 34.1531 34.8752 34.165 34.9584C34.1926 35.2096 34.3468 35.3628 34.5735 35.4332C34.785 35.4889 34.9999 35.5309 35.2168 35.5588C35.3424 35.5731 35.3842 35.6283 35.3985 35.7631C35.4128 36.2379 35.371 36.294 34.9104 36.2655C33.8362 36.2093 32.761 36.196 31.6868 36.2655H31.5846C31.2497 36.2797 31.2221 36.2512 31.2221 35.9162C31.2221 35.8601 31.2364 35.7906 31.2364 35.7345C31.2364 35.6324 31.3059 35.5813 31.4039 35.5813C31.6286 35.5537 31.8369 35.4976 32.0472 35.4557C32.3403 35.3863 32.5067 35.2045 32.5353 34.9114C32.5762 34.5908 32.5762 34.2559 32.5762 33.9342L32.5905 30.1949C32.5951 30.0864 32.5687 29.9789 32.5144 29.8849C32.4602 29.7908 32.3803 29.7142 32.2841 29.6639C32.0316 29.5236 31.7645 29.4113 31.4876 29.329C31.4039 29.3014 31.3202 29.2881 31.2507 29.2452C31.0465 29.1472 31.0414 28.9665 31.2364 28.8541C31.3059 28.8133 31.3896 28.7847 31.4733 28.7704C32.3202 28.6454 33.1522 28.435 33.9567 28.1424C34.1242 28.0862 34.166 28.1016 34.1814 28.268C34.1957 28.3701 34.1814 28.4927 34.1671 28.5886C34.1395 28.7704 34.1395 28.9511 34.1395 29.1196C34.1395 29.1891 34.1538 29.2595 34.2232 29.3014C34.2927 29.3433 34.3631 29.3014 34.4275 29.2605C34.7205 29.0359 35.0136 28.8276 35.3342 28.6479C35.7937 28.3967 36.2839 28.173 36.8148 28.1036C37.4582 28.0199 38.0147 28.1873 38.5038 28.606C38.706 28.787 38.8841 28.9933 39.0337 29.2197C39.1736 29.4239 39.1869 29.429 39.3687 29.2891C39.8997 28.898 40.4572 28.5498 41.0576 28.2986C41.6856 28.0331 42.3279 27.9923 42.9692 28.2149C43.6247 28.4518 44.072 28.9123 44.3375 29.5403C44.5621 30.0427 44.6581 30.5614 44.6581 31.1026V34.842C44.6581 35.0932 44.7602 35.2505 45.0073 35.373C45.2728 35.4751 45.5659 35.5262 45.8446 35.5823C46.0264 35.6232 46.0264 35.6232 46.0264 35.807C45.9988 36.2665 45.957 36.2951 45.5097 36.2665C44.3897 36.2037 43.2671 36.2037 42.1472 36.2665C41.9225 36.2808 41.9225 36.2808 41.9103 36.0571V35.9877C41.896 35.6099 41.896 35.6099 42.2595 35.5282L42.622 35.4302C42.7448 35.4013 42.8543 35.3319 42.9328 35.2331C43.0114 35.1344 43.0544 35.0121 43.0549 34.8859L43.0958 33.8393L43.0682 31.1047C43.0575 30.8605 43.0057 30.6199 42.915 30.393C42.5658 29.5413 41.7989 29.235 41.0586 29.3187C40.5001 29.3749 40.012 29.5975 39.5515 29.9192C39.4534 29.9886 39.384 30.0723 39.3983 30.2122C39.5239 31.1057 39.4391 31.9992 39.4544 32.8917V34.8318C39.4544 35.181 39.5943 35.3485 39.9293 35.4322L40.5726 35.5721C40.6706 35.5864 40.7257 35.6283 40.7257 35.7396V35.8417C40.7115 36.2328 40.6849 36.2501 40.2928 36.246C39.1767 36.1899 38.0596 36.2052 36.9578 36.246C36.58 36.2603 36.5494 36.2185 36.5667 35.8376C36.581 35.613 36.6076 35.6007 36.8179 35.5588L37.2774 35.4751C37.6859 35.3914 37.836 35.2382 37.8635 34.8052L37.9044 33.8699L37.8768 31.0649C37.8492 30.7156 37.7747 30.3807 37.5837 30.0601C37.305 29.5434 36.869 29.2789 36.2716 29.2503C35.6712 29.2095 35.1412 29.4321 34.6378 29.7098C34.2886 29.9141 34.1354 30.1561 34.163 30.5615V32.5986L34.1507 32.5863ZM60.4416 32.6711V34.6388C60.4439 34.7787 60.4531 34.9184 60.4692 35.0575C60.4752 35.1501 60.511 35.2383 60.5714 35.3089C60.6318 35.3794 60.7135 35.4284 60.8041 35.4485C61.0449 35.5187 61.293 35.5609 61.5434 35.5741C61.6833 35.5884 61.7109 35.6436 61.7252 35.7559V35.8539C61.7109 36.342 61.6557 36.3982 61.1809 36.3706C60.1189 36.3012 59.06 36.3145 57.9991 36.3706L57.5906 36.3849C57.5069 36.3849 57.4885 36.3441 57.465 36.2869C57.4243 36.0936 57.4243 35.894 57.465 35.7008C57.4793 35.617 57.5345 35.5987 57.6182 35.5752C57.8224 35.5476 57.996 35.5057 58.19 35.4731C58.5393 35.3893 58.6649 35.2484 58.6781 34.8869L58.719 33.7147V30.2817C58.719 30.0305 58.6209 29.8773 58.3983 29.765C58.1471 29.6251 57.8817 29.5281 57.6019 29.43C57.5181 29.4025 57.4344 29.3739 57.365 29.332C57.1832 29.2064 57.1607 29.0257 57.3374 28.8858C57.4166 28.8207 57.5139 28.7815 57.6162 28.7735C58.5096 28.6336 59.3745 28.4385 60.2119 28.1036C60.3099 28.0628 60.3518 28.0893 60.3936 28.173C60.4355 28.2568 60.4498 28.3548 60.4345 28.4518L60.3936 29.1074C60.3936 29.1911 60.3528 29.3116 60.4212 29.3443C60.5049 29.4004 60.5611 29.2748 60.6305 29.2422C61.0426 28.8965 61.4977 28.6058 61.9845 28.3773C62.4175 28.173 62.8627 28.0423 63.3661 28.0709C64.3015 28.1271 64.9713 28.6019 65.4033 29.4249C65.6279 29.8579 65.7239 30.3317 65.7658 30.8208L65.8066 31.8419L65.8209 34.9257C65.8352 35.1626 65.9189 35.3168 66.1558 35.4006C66.4014 35.4824 66.6535 35.5432 66.9094 35.5823C67.1341 35.6099 67.1463 35.6518 67.1606 35.8611V35.9305C67.133 36.4053 67.1045 36.4186 66.6296 36.39C65.5885 36.3342 64.5451 36.3342 63.504 36.39C63.3641 36.4043 63.2252 36.39 63.0955 36.4043C63.0118 36.4043 62.9556 36.39 62.9423 36.3063C62.9148 36.1245 62.8862 35.9438 62.9281 35.7477C62.9423 35.664 62.9842 35.6221 63.0812 35.6078L63.7245 35.5057C63.9492 35.4496 64.0737 35.3015 64.1023 35.0973L64.1299 34.7062L64.1156 31.7899C64.1156 31.4549 64.1013 31.12 64.0319 30.7851C63.8644 30.0703 63.3202 29.5597 62.5819 29.4883C61.9386 29.4188 61.3565 29.5863 60.8235 29.9345C60.558 30.1019 60.4457 30.3388 60.4457 30.6319V32.7395C60.4457 32.6987 60.4457 32.6987 60.46 32.6987L60.4416 32.6711Z" fill="#FF304F"/>
<path d="M101.313 28.7214C101.16 27.7023 100.782 26.7955 100.127 26.0001C99.5554 25.2974 98.8161 24.7502 97.9771 24.4092C97.0989 24.0467 96.1626 23.9343 95.214 23.9068C94.8229 23.8925 89.4926 23.9762 89.1015 23.9068C89.0035 23.8925 88.934 23.9211 88.8769 24.0048C88.8074 24.1069 88.737 24.2141 88.6951 24.3254C88.5276 24.7033 88.5276 24.6747 88.932 24.7298C89.2669 24.786 89.5876 24.8135 89.9092 24.9116C90.2023 25.0096 90.4116 25.1771 90.481 25.4977C90.5086 25.6509 90.5372 30.5625 90.5372 32.8518L90.481 34.4856C90.4667 34.6112 90.4535 34.7368 90.4116 34.8481C90.3554 35.0156 90.2584 35.1545 90.091 35.2259C89.9067 35.3126 89.708 35.3646 89.5049 35.3791C89.127 35.42 89.0719 35.4353 88.9463 35.8539L88.9054 36.0071C88.8779 36.1889 88.8912 36.2164 89.0729 36.2164L93.2452 36.2573L94.879 36.2297L96.0094 36.0898C97.293 35.8529 98.4376 35.3219 99.4138 34.4713C99.9715 33.9788 100.427 33.3813 100.754 32.713C101.145 31.9318 101.312 31.0792 101.354 30.2153C101.423 29.7272 101.395 29.2248 101.313 28.7224V28.7214ZM99.2893 30.7024C99.2331 31.5958 99.0524 32.4607 98.5918 33.2419C98.0057 34.261 97.1684 34.9727 96.0104 35.2229C95.508 35.325 95.0056 35.376 94.4787 35.3066C94.1009 35.2658 93.7395 35.2229 93.3902 35.0973C92.7622 34.8726 92.5386 34.4846 92.5253 33.8719L92.511 25.4579C92.511 24.9555 92.7357 24.8452 93.0972 24.8299C93.6414 24.789 94.2 24.8023 94.7442 24.8574C95.3236 24.9135 95.8922 25.051 96.4332 25.2659C96.8351 25.4334 97.2074 25.6644 97.536 25.95C98.2896 26.5934 98.792 27.4 99.0677 28.3497C99.2923 29.1176 99.3332 29.8987 99.2923 30.6799L99.2893 30.7024ZM112.911 32.0707C112.911 31.9869 112.911 31.9175 112.897 31.8338C112.771 31.0659 112.366 30.4798 111.739 30.0335C111.334 29.7405 110.874 29.5454 110.399 29.4055C110.315 29.378 110.246 29.3494 110.162 29.3361C110.176 29.2667 110.218 29.2524 110.26 29.2381C110.539 29.0982 110.804 28.945 111.041 28.7357C111.474 28.3732 111.756 27.9259 111.906 27.3817C111.99 27.0886 111.99 26.7955 111.962 26.4882C111.94 26.1286 111.836 25.7788 111.66 25.4647C111.483 25.1506 111.239 24.8802 110.943 24.6736C110.3 24.1988 109.547 24.0038 108.766 23.9895C107.259 23.9619 105.739 23.9895 104.233 23.9895C103.8 23.9895 103.368 24.0171 102.92 23.9486C102.837 23.9343 102.716 23.9078 102.655 24.0048C102.553 24.1866 102.43 24.3673 102.389 24.5766C102.375 24.6747 102.404 24.7298 102.515 24.7441L103.478 24.884C103.856 24.9402 104.121 25.1495 104.148 25.4844C104.175 25.7159 104.189 25.9488 104.189 26.1818L104.161 28.7908L104.147 33.9536C104.147 34.26 104.106 34.554 104.049 34.8604C104.035 34.9576 103.993 35.0489 103.929 35.1231C103.865 35.1974 103.781 35.2515 103.686 35.279C103.407 35.3628 103.142 35.4465 102.849 35.4465C102.771 35.4391 102.692 35.4585 102.626 35.5015C102.56 35.5445 102.511 35.6087 102.486 35.6834C102.43 35.809 102.384 35.9489 102.361 36.0745C102.333 36.242 102.375 36.2991 102.543 36.2787C102.668 36.2644 107.273 36.3767 108.138 36.293C108.655 36.2369 109.159 36.1674 109.673 36.0142C110.551 35.7355 111.362 35.3301 112.003 34.6459C112.534 34.0874 112.841 33.4175 112.868 32.6364C112.909 32.4546 112.909 32.2739 112.909 32.0778L112.911 32.0707ZM106.143 26.3524L106.184 25.2363C106.184 25.027 106.268 24.9299 106.477 24.8871C106.812 24.8176 107.147 24.8462 107.482 24.8595C107.817 24.8871 108.137 24.9289 108.472 25.027C109.085 25.2087 109.561 25.5579 109.841 26.143C109.967 26.4091 110.034 26.6999 110.036 26.9947C110.05 27.3857 110.021 27.7625 109.868 28.1383C109.631 28.655 109.255 28.9899 108.71 29.088C108.165 29.186 106.617 29.1441 106.38 29.1441C106.171 29.1441 106.155 29.1166 106.155 28.9072V27.593C106.122 27.1844 106.118 26.7739 106.141 26.3646L106.143 26.3524ZM110.677 33.8597C110.44 34.4877 110.007 34.9216 109.393 35.1565C109.058 35.2821 108.723 35.3607 108.372 35.3383C107.939 35.324 107.507 35.3383 107.075 35.2545C106.489 35.1289 106.224 34.5704 106.182 34.166C106.112 33.4543 106.154 32.7283 106.141 32.1983V30.3562C106.141 30.1316 106.169 30.0631 106.406 30.0631L107.719 30.0774L108.612 30.1795C109.24 30.3194 109.812 30.5574 110.259 31.0444C110.622 31.4355 110.818 31.9093 110.86 32.426C110.9 32.9141 110.874 33.3889 110.692 33.8495L110.677 33.8597Z" fill="#FF304F"/>
<path d="M75.2203 29.6557L75.5829 29.7119C75.9739 29.7262 76.4345 29.5863 76.5733 29.042C76.6499 28.7821 76.6499 28.5055 76.5733 28.2456C76.4896 28.2456 76.4477 28.315 76.4059 28.3436C76.1965 28.511 75.9596 28.6091 75.7085 28.6366C75.2061 28.6928 74.7037 28.6642 74.2156 28.4835L73.5314 28.2466C73.0542 28.0903 72.5521 28.0245 72.0508 28.0526C71.3391 28.1087 70.6692 28.3456 70.0412 28.6806C69.3714 29.0431 68.8976 29.5873 68.6729 30.3276C68.5473 30.7606 68.533 31.2058 68.5892 31.653C68.7291 32.6721 69.259 33.3839 70.2077 33.7606C70.2638 33.7749 70.3057 33.8015 70.3608 33.8168C70.4864 33.8862 70.5007 33.9567 70.3884 34.0537L70.0392 34.2906L69.2018 34.8073C68.9925 34.9329 68.9649 35.0319 69.0344 35.2535C69.1174 35.5142 69.2721 35.7463 69.4806 35.9234C69.6721 36.0877 69.889 36.2198 70.1229 36.3145C70.2761 36.3839 70.2761 36.4166 70.1372 36.5391L69.3407 37.111C69.0752 37.3152 68.8097 37.5194 68.5871 37.7808C68.4323 37.9465 68.3208 38.1478 68.2623 38.3668C68.2039 38.5859 68.2004 38.816 68.2522 39.0368C68.356 39.5212 68.6096 39.9606 68.9772 40.2928C69.3401 40.6288 69.7814 40.8686 70.2608 40.9902C71.0419 41.2149 71.8517 41.2271 72.6471 41.0739C73.7908 40.8646 74.7915 40.3591 75.5777 39.4973C76.122 38.9255 76.4426 38.2556 76.4712 37.4551C76.5017 36.9921 76.367 36.5333 76.091 36.1603C75.815 35.7873 75.4157 35.5242 74.964 35.4179L74.2105 35.278L71.9078 35.0738C71.6566 35.0595 71.4054 35.0177 71.1961 34.8921C70.9306 34.7246 70.8612 34.404 71.0286 34.1946C71.1542 34.0415 71.3074 33.9434 71.5035 33.9291L71.9497 33.8883C72.8322 33.7985 73.6606 33.4211 74.3075 32.8141C74.6529 32.4944 74.8998 32.0827 75.0192 31.6275C75.1867 31.0271 75.1867 30.4022 75.0468 29.7895C75.0059 29.6363 75.0192 29.622 75.2142 29.6496L75.2203 29.6557ZM71.7996 36.6065C71.8833 36.6208 71.9671 36.6065 72.0508 36.6065C72.6369 36.6341 73.2373 36.676 73.8092 36.8312C73.9959 36.8863 74.1779 36.9563 74.3534 37.0405C74.912 37.3468 75.1213 37.8778 75.0508 38.4497C74.9671 39.0776 74.6179 39.5239 74.0736 39.818C73.7111 40.0222 73.3057 40.111 72.8871 40.1529C72.7339 40.1672 72.594 40.1529 72.4408 40.1529C71.9528 40.1672 71.4779 40.112 71.0174 39.916C70.6968 39.7904 70.4313 39.6096 70.1944 39.3574C69.7063 38.8693 69.4796 37.9758 70.2087 37.2498C70.6549 36.8414 71.1583 36.5524 71.7996 36.6065V36.6065ZM73.3905 32.2524C73.0974 32.9917 72.4551 33.2154 71.8139 33.1173C71.2278 33.0336 70.7948 32.713 70.5171 32.182C70.1546 31.4703 70.0575 30.732 70.2659 29.9631C70.419 29.3913 70.7683 28.9583 71.3819 28.8603C72.1631 28.7204 72.9136 29.0002 73.3078 29.7813C73.512 30.1591 73.6008 30.6186 73.6008 31.2742C73.5866 31.5397 73.5314 31.9022 73.3915 32.2514L73.3905 32.2524ZM55.8088 31.3028C55.6832 30.5492 55.4044 29.8651 54.8877 29.2932C54.1198 28.4416 53.1437 28.0679 52.0408 28.0648C51.0779 28.0505 50.1722 28.3303 49.3614 28.8327C48.5643 29.3097 47.9801 30.0737 47.7286 30.9679C47.4917 31.7776 47.504 32.6017 47.6878 33.4237C48.1759 35.6293 49.8791 36.5769 51.9152 36.438C52.5157 36.3972 53.0875 36.2011 53.6307 35.9356C54.4405 35.5578 55.0266 34.9584 55.431 34.163C55.7516 33.5074 55.8905 32.809 55.8772 32.0135L55.8078 31.3018L55.8088 31.3028ZM53.8278 34.4009C53.728 34.7149 53.5389 34.993 53.2835 35.2012C53.0282 35.4093 52.7177 35.5386 52.3901 35.5731C51.7774 35.6569 51.2035 35.5037 50.6878 35.1402C50.3156 34.8663 50.0141 34.5075 49.8087 34.0935C49.2368 32.9213 49.1388 31.6939 49.4308 30.4379C49.5249 30.0492 49.7283 29.6956 50.017 29.4188C50.5337 28.944 51.1331 28.8327 51.8039 28.9726C52.4472 29.1125 52.9343 29.4607 53.3356 29.9917C53.7369 30.5227 53.9217 31.1353 54.0331 31.7786C54.0892 32.0993 54.0892 32.4342 54.1025 32.6435C54.1025 33.3134 54.0463 33.8689 53.837 34.4019L53.8278 34.4009ZM86.2996 31.4151C86.1974 30.6054 85.8952 29.8661 85.3223 29.2524C84.5687 28.4294 83.5915 28.0801 82.504 28.0658C81.5687 28.0515 80.7038 28.317 79.9083 28.7776C79.0148 29.3085 78.4012 30.0611 78.1643 31.0802C77.8813 32.192 78 33.368 78.4992 34.4009C78.9587 35.3781 79.7409 36.0061 80.7742 36.2849C81.9179 36.5912 83.0074 36.4523 84.0674 35.9356C84.9884 35.4894 85.644 34.792 86.0208 33.8423C86.2454 33.2838 86.3271 32.6844 86.3414 31.9859C86.3557 31.8603 86.3271 31.6367 86.3006 31.4141L86.2996 31.4151ZM84.3737 34.2202C84.1491 34.9737 83.6763 35.4618 82.8808 35.5742C82.2947 35.6579 81.7372 35.518 81.2337 35.1831C80.8008 34.89 80.4945 34.4989 80.2708 34.0394C80.0196 33.5513 79.8797 33.0346 79.8246 32.5047C79.7409 31.8491 79.7409 31.2078 79.894 30.5513C79.9232 30.4218 79.9653 30.2956 80.0196 30.1745C80.4107 29.1972 81.2756 28.751 82.2947 28.9746C82.9789 29.1278 83.4945 29.5056 83.8856 30.0775C84.2634 30.636 84.4442 31.2497 84.5289 31.9155C84.5698 32.181 84.5851 32.4597 84.5698 32.6966C84.5698 33.2409 84.5289 33.7433 84.3655 34.2314L84.3737 34.2202Z" fill="#FF304F"/>
</svg>
