<svg width="261" height="98" viewBox="0 0 261 98" fill="none" xmlns="http://www.w3.org/2000/svg">
<path d="M227.45 39.2211C226.89 39.2211 226.347 39.3366 225.865 39.6088L210.641 48.4008C209.656 48.9682 209.057 50.0406 209.057 51.1808V68.7334C209.057 69.8732 209.656 70.9437 210.641 71.513L214.617 73.8042C216.549 74.7566 217.261 74.7413 218.14 74.7413C221 74.7413 222.633 73.0058 222.633 69.9895V52.6728C222.633 52.428 222.421 52.2528 222.181 52.2528H220.274C220.029 52.2528 219.821 52.4325 219.821 52.6728V69.9985C219.821 71.3355 218.428 72.6806 216.169 71.5502L212.035 69.126C211.889 69.0465 211.777 68.9014 211.777 68.7383V51.1858C211.777 51.0196 211.888 50.8497 212.035 50.7657L227.228 42.0052C227.37 41.9234 227.54 41.9234 227.68 42.0052L242.873 50.7657C243.018 50.8524 243.132 51.0142 243.132 51.1858V68.7383C243.132 68.9059 243.048 69.0775 242.905 69.1584L227.681 77.9189C227.546 77.9967 227.366 77.9967 227.229 77.9189L223.317 75.5918C223.2 75.5235 223.042 75.5289 222.93 75.5918C221.85 76.2037 221.647 76.2746 220.635 76.626C220.385 76.7127 220.006 76.8479 220.764 77.2729L225.871 80.2829C226.357 80.5642 226.899 80.703 227.455 80.703C228.019 80.703 228.553 80.5682 229.039 80.2829L244.264 71.5224C245.249 70.9491 245.848 69.8826 245.848 68.7428V51.1903C245.848 50.0501 245.249 48.9799 244.264 48.4103L229.039 39.6183C228.562 39.346 228.015 39.2306 227.455 39.2306L227.45 39.2211ZM231.523 51.7635C227.187 51.7635 224.605 53.6086 224.605 56.6766C224.605 60.0011 227.168 60.9194 231.329 61.331C236.307 61.8184 236.695 62.5493 236.695 63.5292C236.695 65.2287 235.34 65.9534 232.137 65.9534C228.114 65.9534 227.229 64.9488 226.933 62.9433C226.898 62.7286 226.733 62.5556 226.513 62.5556H224.536C224.417 62.5583 224.303 62.6068 224.219 62.6911C224.135 62.7753 224.086 62.8889 224.084 63.008C224.084 65.5702 225.477 68.6 232.133 68.6C236.95 68.6 239.729 66.7131 239.729 63.3957C239.729 60.1162 237.484 59.2298 232.811 58.6111C228.094 57.9822 227.64 57.6812 227.64 56.5746C227.64 55.6618 228.021 54.4407 231.518 54.4407C234.642 54.4407 235.797 55.1146 236.27 57.2207C236.312 57.4184 236.486 57.5801 236.69 57.5801H238.667C238.788 57.5801 238.906 57.5055 238.991 57.4184C239.073 57.3254 239.132 57.2207 239.12 57.0949C238.814 53.4676 236.396 51.7613 231.524 51.7613L231.523 51.7635Z" fill="#FF304F"/>
<path d="M137.944 16.2115C137.774 16.2118 137.607 16.2564 137.459 16.3409C137.312 16.4268 137.19 16.5495 137.105 16.6969C137.02 16.8443 136.975 17.0113 136.974 17.1814V41.9095C136.974 42.1521 136.861 42.3696 136.651 42.4913C136.548 42.5514 136.431 42.583 136.311 42.583C136.192 42.583 136.075 42.5514 135.972 42.4913L131.931 40.1641C131.637 39.9936 131.302 39.9038 130.962 39.9038C130.621 39.9038 130.287 39.9936 129.992 40.1641L113.863 49.4732C113.26 49.821 112.892 50.4904 112.892 51.1863V69.8049C112.892 70.1456 112.981 70.4804 113.151 70.7755C113.322 71.0706 113.567 71.3155 113.862 71.4856L129.992 80.7951C130.286 80.9661 130.621 81.0561 130.962 81.0561C131.302 81.0561 131.637 80.9661 131.931 80.7951L148.061 71.4856C148.356 71.3155 148.601 71.0706 148.772 70.7755C148.942 70.4804 149.031 70.1456 149.031 69.8049V23.3875C149.031 22.6812 148.646 22.0186 148.029 21.6745L138.429 16.3081C138.278 16.224 138.111 16.2092 137.944 16.211V16.2115ZM34.1829 39.4525C33.8751 39.4651 33.5863 39.5186 33.31 39.6789L17.1807 48.988C16.8852 49.1578 16.6399 49.4027 16.4696 49.6978C16.2994 49.993 16.2102 50.328 16.2112 50.6687L16.244 75.656C16.244 76.0038 16.4237 76.3263 16.7292 76.4962C17.0288 76.6759 17.4004 76.6759 17.6987 76.4962L27.2666 71.0008C27.8731 70.6414 28.2684 70.0142 28.2684 69.3206V57.6511C28.2684 56.9547 28.6345 56.3168 29.2388 55.9709L33.3118 53.6114C33.6061 53.4402 33.9408 53.3509 34.2813 53.3526C34.6219 53.3506 34.9569 53.4399 35.2512 53.6114L39.3224 55.9695C39.9258 56.3154 40.2919 56.9543 40.2919 57.6498V69.3188C40.2919 70.0134 40.6962 70.6441 41.2938 70.999L50.8616 76.4944C51.1626 76.6741 51.5333 76.6741 51.8311 76.4944C52.1276 76.3236 52.3163 76.0015 52.3163 75.6542L52.3487 50.6678C52.3506 50.3269 52.2618 49.9916 52.0915 49.6962C51.9211 49.4009 51.6753 49.1562 51.3792 48.9871L35.2499 39.6785C34.9772 39.5186 34.687 39.4647 34.377 39.4521H34.1838L34.1829 39.4525ZM179.125 39.6789C178.784 39.678 178.449 39.7673 178.155 39.9377L162.025 49.2473C161.423 49.5954 161.054 50.232 161.054 50.9275V69.5461C161.054 70.2461 161.449 70.8804 162.056 71.2263L178.057 80.3463C178.647 80.6832 179.369 80.7089 179.964 80.3778L189.661 74.9795C189.969 74.8087 190.177 74.4898 190.178 74.1393C190.179 73.7889 189.997 73.4735 189.692 73.2992L173.465 63.9897C173.162 63.8163 172.949 63.4654 172.949 63.1168V57.2948C172.949 56.9471 173.164 56.6281 173.465 56.4547L178.508 53.5453C178.808 53.3719 179.176 53.3719 179.478 53.5453L184.523 56.4547C184.671 56.5396 184.793 56.662 184.878 56.8095C184.963 56.9571 185.008 57.1245 185.008 57.2948V61.8849C185.007 62.0553 185.052 62.2227 185.137 62.3702C185.222 62.5178 185.345 62.6402 185.492 62.725C185.795 62.8993 186.161 62.9002 186.463 62.725L196.127 57.1017C196.727 56.753 197.098 56.1146 197.098 55.4214V50.9288C197.098 50.5882 197.008 50.2536 196.838 49.9586C196.668 49.6636 196.423 49.4185 196.128 49.2482L180.095 39.9386C179.8 39.768 179.466 39.6787 179.125 39.6798L179.125 39.6789ZM130.897 53.579C130.987 53.5786 131.076 53.6007 131.155 53.6433L136.683 56.8433C136.833 56.93 136.941 57.0904 136.941 57.2634V63.6635C136.941 63.8374 136.834 63.9973 136.683 64.0836L131.155 67.2837C131.005 67.369 130.821 67.369 130.67 67.2837L125.143 64.0836C124.992 63.9969 124.884 63.8365 124.884 63.6635V57.2625C124.884 57.0891 124.993 56.93 125.143 56.8424L130.67 53.6428C130.746 53.5992 130.812 53.5786 130.897 53.5786V53.5781V53.579Z" fill="#FF304F"/>
<path d="M82.6372 39.5815C82.2967 39.5809 81.9619 39.6701 81.6668 39.8402L65.5371 49.1174C64.9342 49.4652 64.5676 50.135 64.5676 50.8305V69.4491C64.5667 69.7898 64.6559 70.1246 64.8262 70.4197C64.9964 70.7148 65.2417 70.9596 65.5371 71.1293L81.6668 80.4389C81.9614 80.6098 82.296 80.6999 82.6366 80.6999C82.9772 80.6999 83.3117 80.6098 83.6063 80.4389L99.736 71.1293C100.031 70.9593 100.276 70.7143 100.447 70.4192C100.617 70.1242 100.706 69.7893 100.706 69.4486V50.83C100.706 50.1337 100.339 49.4643 99.7356 49.117L83.6058 39.8398C83.3111 39.6689 82.9762 39.5796 82.6355 39.581L82.6372 39.5815ZM179.093 56.1964C179.029 56.1964 178.957 56.1964 178.899 56.2278L175.796 58.0384C175.738 58.0705 175.69 58.1172 175.656 58.1739C175.622 58.2306 175.603 58.2953 175.602 58.3614V61.9173C175.602 62.0511 175.68 62.1733 175.796 62.2407L178.899 64.0184C178.952 64.0515 179.014 64.069 179.077 64.069C179.139 64.069 179.201 64.0515 179.254 64.0184L182.357 62.2407C182.472 62.1747 182.551 62.0511 182.551 61.9173V58.3614C182.551 58.2275 182.472 58.1053 182.357 58.0379L179.254 56.2274C179.196 56.1933 179.157 56.196 179.092 56.196L179.093 56.1964Z" fill="#FF304F"/>
</svg>
