<svg id="visual" viewBox="0 0 1400 600" width="1400" height="600" xmlns="http://www.w3.org/2000/svg" xmlns:xlink="http://www.w3.org/1999/xlink" version="1.1"><rect x="0" y="0" width="1400" height="600" fill="#FF304F"></rect><defs><linearGradient id="grad1_0" x1="57.1%" y1="0%" x2="100%" y2="100%"><stop offset="3.333333333333332%" stop-color="#ff304f" stop-opacity="1"></stop><stop offset="96.66666666666667%" stop-color="#ff304f" stop-opacity="1"></stop></linearGradient></defs><defs><linearGradient id="grad2_0" x1="0%" y1="0%" x2="42.9%" y2="100%"><stop offset="3.333333333333332%" stop-color="#ff304f" stop-opacity="1"></stop><stop offset="96.66666666666667%" stop-color="#ff304f" stop-opacity="1"></stop></linearGradient></defs><g transform="translate(1400, 0)"><path d="M0 540C-64.3 548.3 -128.6 556.7 -166.9 513.6C-205.2 470.4 -217.5 375.9 -231.6 318.8C-245.7 261.6 -261.4 242 -309.9 225.1C-358.3 208.2 -439.3 194 -483.1 157C-526.9 119.9 -533.5 60 -540 0L0 0Z" fill="#010C2D"></path></g><g transform="translate(0, 600)"><path d="M0 -540C59.3 -533 118.6 -526 157.3 -484.1C195.9 -442.2 214 -365.3 229.2 -315.5C244.5 -265.7 257.1 -243 313.1 -227.5C369.1 -211.9 468.5 -203.6 513.6 -166.9C558.6 -130.2 549.3 -65.1 540 0L0 0Z" fill="#010C2D"></path></g></svg>