<svg width="64" height="74" viewBox="0 0 64 74" fill="none" xmlns="http://www.w3.org/2000/svg">
<path d="M57.1429 4.57141H6.85714C3.07143 4.57141 0 7.64285 0 11.4286V61.7145C0 65.5002 3.07143 68.5716 6.85714 68.5716H57.1429C60.9286 68.5716 64 65.5002 64 61.7145V11.4286C64 7.64285 60.9286 4.57141 57.1429 4.57141ZM34.8286 54.4859C34.8286 60.7145 31.1714 63.5573 25.8429 63.5573C21.0286 63.5573 18.2429 61.0716 16.8143 58.0573L21.7143 55.1002C22.6571 56.7716 23.5143 58.1859 25.5857 58.1859C27.5571 58.1859 28.8143 57.4145 28.8143 54.4002V33.9572H34.8286V54.4859ZM49.0571 63.5573C43.4714 63.5573 39.8571 60.9002 38.1 57.4145L43 54.5859C44.2857 56.6859 45.9714 58.243 48.9286 58.243C51.4143 58.243 53.0143 57.0002 53.0143 55.2716C53.0143 53.2144 51.3857 52.4859 48.6286 51.2716L47.1286 50.6287C42.7857 48.7859 39.9143 46.4573 39.9143 41.5573C39.9143 37.043 43.3571 33.6144 48.7143 33.6144C52.5429 33.6144 55.2857 34.9429 57.2571 38.4287L52.5714 41.4287C51.5429 39.5858 50.4286 38.8572 48.7 38.8572C46.9429 38.8572 45.8286 39.9715 45.8286 41.4287C45.8286 43.2287 46.9429 43.9573 49.5286 45.0858L51.0286 45.7287C56.1429 47.9144 59.0143 50.1573 59.0143 55.1859C59.0143 60.5859 54.7571 63.5573 49.0571 63.5573Z" fill="#010C2D"/>
</svg>
