<svg width="78" height="78" viewBox="0 0 78 78" fill="none" xmlns="http://www.w3.org/2000/svg">
<path d="M74.5875 39C74.5875 34.45 69.7125 30.225 61.5875 27.3L60.125 26.8125V26.1625C61.9125 17.225 60.6125 10.5625 56.55 8.12501C52.4875 5.68751 46.475 7.96251 39.975 13.65L39 14.625L38.675 14.3H38.35C31.6875 8.12501 25.1875 6.01251 21.125 8.28751C17.0625 10.5625 15.925 16.9 17.55 25.1875C17.7209 25.7147 17.83 26.2601 17.875 26.8125L16.0875 27.4625C8.125 30.225 3.4125 34.45 3.4125 39C3.4125 43.55 8.6125 48.1 16.7375 51.025L17.875 51.35C17.6742 51.9253 17.5646 52.5284 17.55 53.1375C15.925 61.2625 17.3875 67.4375 21.125 69.7125C24.8625 71.9875 31.6875 69.875 38.1875 64.1875L39.1625 63.375L40.4625 64.675C45.0125 68.575 49.5625 70.6875 53.1375 70.6875C54.3985 70.7163 55.6407 70.3775 56.7125 69.7125C60.775 67.4375 62.2375 60.775 60.45 52.325V52C60.3798 51.7326 60.3255 51.4613 60.2875 51.1875H60.775C69.3875 48.1 74.5875 43.7125 74.5875 39ZM69.875 39C69.875 40.95 66.3 44.3625 59.3125 46.6375H58.9875C58.1356 44.0235 57.104 41.4716 55.9 39C57.0375 36.4 58.0125 33.8 58.825 31.3625L60.125 31.6875C66.625 33.9625 69.875 37.05 69.875 39ZM43.55 61.1L42.25 60.125C44.1106 58.0634 45.847 55.8928 47.45 53.625L55.7375 52.325C55.9 52.65 55.9 52.975 56.0625 53.1375C56.6415 56.0809 56.7512 59.0973 56.3875 62.075C56.1591 63.4991 55.4749 64.8106 54.4375 65.8125C52.8125 66.7875 48.425 65.4875 43.55 61.1ZM41.4375 53.95L39.1625 56.875L36.5625 53.95H41.4375ZM19.175 31.2C19.9917 33.8791 21.0243 36.4877 22.2625 39C21.0233 41.5679 19.9908 44.2305 19.175 46.9625L18.2 46.6375C15.3544 45.7394 12.7068 44.3053 10.4 42.4125C9.80267 42.0351 9.29143 41.5362 8.89949 40.9483C8.50754 40.3603 8.24367 39.6966 8.125 39C8.125 37.05 11.375 33.9625 17.55 31.85L19.175 31.2ZM36.5625 24.05L39 21.2875L41.4375 24.05H36.5625ZM54.4375 12.1875C56.225 13.1625 57.2 18.0375 55.7375 25.1875C55.7449 25.2755 55.7344 25.3642 55.7065 25.448C55.6785 25.5318 55.6338 25.6091 55.575 25.675L47.45 24.375C45.847 22.1072 44.1106 19.9367 42.25 17.875L43.225 17.0625C48.425 12.5125 52.65 11.2125 54.4375 12.1875ZM27.3 29.4125L26 31.525L24.8625 33.6375C24.375 32.5 24.05 31.3625 23.5625 30.0625L27.3 29.4125ZM23.5625 47.9375C24.05 46.8 24.375 45.6625 24.8625 44.3625L26 46.475L27.3 48.5875L23.5625 47.9375ZM50.7 39C49.8731 40.7816 48.9509 42.5175 47.9375 44.2C46.9625 45.9875 45.825 47.6125 44.85 49.2375H33.15C32.0125 47.45 30.875 45.825 30.0625 44.2C29.0411 42.522 28.1186 40.7857 27.3 39C28.0885 37.1995 29.0119 35.4612 30.0625 33.8C30.9961 32.1164 32.027 30.4887 33.15 28.925C37.0432 28.6002 40.9567 28.6002 44.85 28.925C45.9875 30.55 46.9625 32.175 47.9375 33.8C48.988 35.4612 49.9115 37.1995 50.7 39ZM52 31.525L50.7 29.4125L54.4375 30.225C54.0756 31.3885 53.6415 32.5282 53.1375 33.6375L52 31.525ZM50.7 48.5875L52 46.475L53.1375 44.2L54.6 47.9375L50.7 48.5875ZM35.5875 17.7125H35.75L30.55 24.2125L22.425 25.5125C22.2625 25.025 22.2625 24.7 22.1 24.2125C20.8 17.55 21.775 13 23.4 12.1875C23.8314 11.9041 24.3517 11.7885 24.8625 11.8625C27.1375 11.8625 31.0375 13.4875 35.425 17.3875L35.5875 17.7125ZM22.1 53.95C22.1296 53.4483 22.2394 52.9546 22.425 52.4875L30.7125 53.625C32.2748 55.9231 34.0134 58.0963 35.9125 60.125L35.5875 60.45L35.2625 60.775C33.047 62.8272 30.4528 64.4279 27.625 65.4875C27.0046 65.8124 26.325 66.0087 25.6269 66.0646C24.9288 66.1204 24.2266 66.0347 23.5625 65.8125C21.775 64.8375 20.8 60.45 22.1 53.95Z" fill="#010C2D"/>
<path d="M39 31.85C37.5794 31.8177 36.1814 32.2094 34.9844 32.9752C33.7874 33.741 32.8457 34.846 32.2795 36.1493C31.7134 37.4526 31.5484 38.8951 31.8057 40.2926C32.0629 41.6901 32.7307 42.9792 33.7239 43.9955C34.7171 45.0118 35.9905 45.7091 37.3818 45.9984C38.773 46.2877 40.2188 46.1559 41.5348 45.6198C42.8508 45.0838 43.9772 44.1678 44.7703 42.9887C45.5634 41.8096 45.9871 40.421 45.9875 39C45.988 37.1315 45.257 35.3371 43.9511 34.0008C42.6452 32.6645 40.868 31.8925 39 31.85Z" fill="#010C2D"/>
</svg>
