<svg width="800" height="419" viewBox="0 0 800 419" fill="none" xmlns="http://www.w3.org/2000/svg">
<path d="M400 416.437C620.914 416.437 800 323.215 800 208.219C800 93.2227 620.914 0 400 0C179.086 0 0 93.2227 0 208.219C0 323.215 179.086 416.437 400 416.437Z" fill="#FF304F"/>
<path fill-rule="evenodd" clip-rule="evenodd" d="M112.328 331.506L156.166 109.587H257.531C301.366 112.328 323.284 134.244 323.284 172.603C323.284 238.356 271.231 276.712 224.653 273.971H175.344L164.384 331.506H112.328ZM186.3 232.878L200 150.684H235.616C254.794 150.684 268.491 158.903 268.491 175.34C265.753 221.918 243.834 230.137 219.178 232.878H186.303H186.3ZM313.1 273.971L356.934 52.0563H408.991L398.031 109.587H447.344C491.181 112.328 507.619 134.244 502.141 161.644L482.962 273.971H428.169L447.347 172.603C450.084 158.903 450.084 150.684 430.909 150.684H389.812L365.156 273.971H313.1V273.971ZM479.453 331.506L523.287 109.587H624.656C668.494 112.328 690.412 134.244 690.412 172.603C690.412 238.356 638.356 276.712 591.781 273.971H542.466L531.506 331.506H479.453V331.506ZM553.422 232.878L567.122 150.684H602.741C621.919 150.684 635.616 158.903 635.616 175.34C632.878 221.918 610.959 230.137 586.303 232.878H553.425H553.422Z" fill="#010C2D"/>
</svg>
