<svg width="800" height="479" viewBox="0 0 800 479" fill="none" xmlns="http://www.w3.org/2000/svg">
<path d="M74.2777 0H725.398C766.607 0 799.963 33.3562 799.963 74.5649V323.107C799.963 364.316 766.607 397.672 725.398 397.672H491.898L523.948 476.158L382.996 397.672H74.6026C33.3971 397.672 0.0408522 364.316 0.0408522 323.107V74.5649C-0.287242 33.6843 33.0659 0 74.2777 0Z" fill="#FF304F"/>
<path d="M45.5895 67.9623C50.1422 61.7816 56.9696 58.5319 66.075 57.882C82.661 56.579 92.0913 64.3814 94.3661 81.2923C104.446 149.255 115.502 206.812 127.207 253.96L198.419 118.364C204.924 106.006 213.055 99.503 222.81 98.8531C237.118 97.8782 245.895 106.98 249.473 126.166C257.604 169.412 268.009 206.159 280.364 237.374C288.82 154.782 303.128 95.2753 323.288 58.5319C328.163 49.4265 335.318 44.8738 344.749 44.2208C352.229 43.5739 359.057 45.8487 365.234 50.7264C371.412 55.604 374.665 61.7816 375.314 69.2621C375.639 75.1147 374.665 79.9924 372.065 84.87C359.382 108.283 348.973 147.63 340.521 202.256C332.394 255.26 329.466 296.559 331.416 326.15C332.069 334.275 330.766 341.43 327.516 347.611C323.61 354.763 317.761 358.666 310.28 359.316C301.825 359.966 293.047 356.066 284.592 347.286C254.351 316.392 230.288 270.218 212.73 208.761C191.591 250.383 175.983 281.598 165.903 302.409C146.717 339.155 130.46 358.016 116.801 358.991C108.021 359.641 100.544 352.16 94.0411 336.556C77.4583 293.957 59.5725 211.686 40.39 89.7477C39.087 81.2923 41.0368 73.8117 45.5895 67.9623V67.9623ZM744.386 119.014C732.681 98.5281 715.445 86.173 692.359 81.2923C686.179 79.9924 680.329 79.3424 674.799 79.3424C643.583 79.3424 618.22 95.6003 598.384 128.119C581.473 155.757 573.021 186.323 573.021 219.817C573.021 244.855 578.223 266.315 588.629 284.201C600.334 304.687 617.57 317.042 640.655 321.92C646.832 323.223 652.685 323.873 658.216 323.873C689.756 323.873 715.12 307.615 734.63 275.096C751.538 247.13 759.994 216.564 759.994 183.073C760.319 157.71 754.791 136.571 744.386 119.014V119.014ZM703.415 209.086C698.862 230.547 690.731 246.48 678.698 257.21C669.271 265.666 660.491 269.24 652.363 267.615C644.558 265.99 638.052 259.163 633.177 246.48C629.272 236.399 627.325 226.319 627.325 216.889C627.325 208.762 627.975 200.631 629.6 193.154C632.528 179.82 638.055 166.812 646.832 154.457C657.566 138.521 668.946 132.022 680.651 134.297C688.457 135.921 694.962 142.752 699.837 155.432C703.74 165.512 705.689 175.593 705.689 185.023C705.689 193.479 705.039 201.606 703.415 209.083V209.086ZM540.827 119.014C529.122 98.5281 511.561 86.173 488.801 81.2923C482.623 79.9924 476.77 79.3424 471.24 79.3424C440.024 79.3424 414.661 95.6003 394.825 128.119C377.917 155.757 369.462 186.323 369.462 219.817C369.462 244.855 374.665 266.315 385.07 284.201C396.775 304.687 414.011 317.042 437.096 321.92C443.277 323.223 449.126 323.873 454.657 323.873C486.198 323.873 511.561 307.615 531.072 275.096C547.982 247.13 556.435 216.564 556.435 183.073C556.435 157.71 551.232 136.571 540.827 119.014V119.014ZM499.531 209.086C494.978 230.547 486.848 246.48 474.818 257.21C465.387 265.666 456.607 269.24 448.476 267.615C440.674 265.99 434.171 259.163 429.291 246.48C425.391 236.399 423.441 226.319 423.441 216.889C423.441 208.762 424.091 200.631 425.716 193.154C428.644 179.82 434.171 166.812 442.952 154.457C453.682 138.521 465.062 132.022 476.767 134.297C484.573 135.921 491.078 142.752 495.953 155.432C499.859 165.512 501.806 175.593 501.806 185.023C502.134 193.479 501.156 201.606 499.531 209.083V209.086Z" fill="#010C2D"/>
</svg>
