<svg width="120" height="151" viewBox="0 0 120 151" fill="none" xmlns="http://www.w3.org/2000/svg">
<path d="M60 15C26.8985 15 0 41.8985 0 75C0 108.102 26.8985 135 60 135C93.1015 135 120 108.102 120 75C120 41.8985 93.1015 15 60 15ZM60 25.006C73.0392 25.006 84.8404 29.9854 93.723 38.104C93.5323 38.1001 93.3399 38.0499 93.101 38.0499C88.1994 38.0499 85.006 42.3456 85.006 46.9471C85.006 51.0963 87.0961 54.5527 89.6484 58.7019C91.5454 62.0019 93.75 66.3012 93.75 72.4489C93.75 76.7505 92.1475 81.6971 89.9459 88.6478L85.006 105.297L66.238 47.479C69.238 47.3267 71.9351 47.0282 71.9351 47.0282C74.6351 46.7282 74.3376 42.7293 71.6376 42.8816C71.6376 42.8816 63.5396 43.5306 58.2873 43.5306C53.3903 43.5306 45.1352 42.8816 45.1352 42.8816C42.4352 42.7293 42.1377 46.8806 44.8377 47.0282C44.8377 47.0282 47.3841 47.3267 50.0841 47.479L58.5036 72.8996L47.5962 105.703L28.6839 47.488C31.7347 47.3357 34.4351 47.0373 34.4351 47.0373C37.1351 46.7373 36.7868 42.7383 34.1376 42.8906C34.1376 42.8906 26.3755 43.5065 21.1208 43.5306C30.272 32.2234 44.2529 25.006 60 25.006ZM103.9 51.0036C107.784 58.1203 109.994 66.2894 109.994 75C109.994 94.7975 98.5787 111.781 81.9681 119.892C83.0458 119.36 84.117 118.828 85.1502 118.197L100.403 74.0535C103.25 66.955 104.198 61.2508 104.198 56.1508C104.198 54.3001 104.103 52.6456 103.909 51.0487C103.902 51.0351 103.906 51.0175 103.9 51.0036ZM14.7837 53.6989L38.149 119.955C21.4737 111.868 10.006 94.845 10.006 75C10.006 67.3608 11.7466 60.1619 14.7837 53.6989ZM60.8474 79.354L76.253 121.496C76.3518 121.739 76.4502 121.943 76.5956 122.136C71.3997 123.956 65.8327 124.994 60 124.994C55.0759 124.994 50.335 124.262 45.8474 122.948L60.8474 79.354ZM38.753 120.243C40.0519 120.838 41.3642 121.376 42.6923 121.884C41.35 121.391 40.0378 120.845 38.753 120.243ZM80.3816 120.658C79.3272 121.127 78.2463 121.541 77.1544 121.938C78.2504 121.556 79.3258 121.124 80.3816 120.658ZM44.1256 122.407C44.6598 122.583 45.1909 122.76 45.7392 122.921C45.1955 122.76 44.6613 122.585 44.1256 122.407Z" fill="#FF304F"/>
</svg>
