<svg width="600" height="600" viewBox="0 0 600 600" fill="none" xmlns="http://www.w3.org/2000/svg">
<path d="M300 0C134.311 0 0 134.311 0 300C0 465.689 134.311 600 300 600C465.689 600 600 465.689 600 300C600 134.311 465.689 0 300 0Z" fill="#FF304F"/>
<path d="M300 14.0625C142.078 14.0625 14.0625 142.078 14.0625 300C14.0625 457.922 142.078 585.938 300 585.938C457.922 585.938 585.938 457.922 585.938 300C585.938 142.078 457.922 14.0625 300 14.0625Z" fill="#010C2D"/>
<path d="M300 28.125C149.845 28.125 28.125 149.845 28.125 300C28.125 450.155 149.845 571.875 300 571.875C450.155 571.875 571.875 450.155 571.875 300C571.875 149.845 450.155 28.125 300 28.125Z" fill="#FF304F"/>
<path fill-rule="evenodd" clip-rule="evenodd" d="M337.946 232.097L337.992 318.417L372.685 460.795C375 470.1 374.888 479.639 365.677 481.955C356.513 484.266 349.242 481.673 346.927 472.416L303.595 340.453H289.711L248.489 472.416C245.02 481.35 238.631 485.423 229.739 481.955C220.899 478.528 221.034 468.483 224.508 459.548L257.967 319.898V232.097L159.422 223.336C150.816 222.642 144.666 217.884 145.359 209.273C146.011 200.616 154.148 195.469 162.713 196.163H318.797L436.247 195.975C444.858 195.652 454.458 200.569 454.735 209.273C455.11 217.838 444.858 222.966 436.247 223.336L337.946 232.097ZM329.878 149.095C329.881 153.305 329.054 157.475 327.445 161.365C325.835 165.255 323.474 168.79 320.497 171.767C317.52 174.744 313.985 177.105 310.095 178.715C306.205 180.325 302.035 181.152 297.825 181.148C280.247 181.148 265.917 166.819 265.917 149.095C265.87 131.517 280.2 117.188 297.825 117.188C315.544 117.188 329.878 131.517 329.878 149.095Z" fill="#010C2D"/>
</svg>
