<svg width="120" height="120" viewBox="0 0 120 120" fill="none" xmlns="http://www.w3.org/2000/svg">
<g clip-path="url(#clip0)">
<path d="M13.1616 7.5C9.80713 7.5 7.13552 10.4795 7.54029 13.8098L17.7905 98.6426C18.2449 102.397 20.9287 105.52 24.5764 106.556L57.4548 115.891C59.1106 116.361 60.8663 116.372 62.5305 115.92L97.1082 106.553C100.874 105.533 103.637 102.296 104.026 98.4229L112.555 13.6963C112.887 10.4017 110.234 7.5 106.923 7.5H13.1616ZM13.1616 11.25H106.923C108.092 11.25 108.938 12.1886 108.823 13.3228L108.552 16.0144C108.395 15.6978 108.151 15.4321 107.849 15.2481C107.547 15.0641 107.199 14.9692 106.846 14.9744C106.349 14.9821 105.876 15.1866 105.53 15.5429C105.184 15.8993 104.993 16.3783 105 16.875V20.625C104.996 20.9679 105.085 21.3055 105.259 21.601C105.433 21.8965 105.685 22.1386 105.987 22.3009C106.289 22.4633 106.63 22.5397 106.973 22.5219C107.315 22.504 107.646 22.3926 107.93 22.1997L100.294 98.0457C100.294 98.0469 100.294 98.0481 100.294 98.0493C100.06 100.379 98.417 102.315 96.1304 102.935C96.1292 102.935 96.1279 102.935 96.1267 102.935L61.5491 112.302C60.5433 112.575 59.4832 112.568 58.4802 112.284L25.6018 102.949C23.3882 102.32 21.788 100.449 21.5149 98.1921L12.3523 22.3572C12.6397 22.4872 12.9553 22.5425 13.2698 22.5182C13.5843 22.4938 13.8876 22.3905 14.1516 22.2178C14.4155 22.0451 14.6317 21.8086 14.78 21.5302C14.9283 21.2518 15.004 20.9404 15 20.625V16.875C15.0034 16.6241 14.9565 16.3752 14.862 16.1428C14.7674 15.9104 14.6272 15.6993 14.4497 15.5221C14.2721 15.3449 14.0608 15.2051 13.8282 15.111C13.5956 15.0169 13.3466 14.9704 13.0957 14.9744C12.7907 14.9794 12.4916 15.0587 12.2242 15.2055C11.9568 15.3523 11.7293 15.562 11.5613 15.8167L11.2647 13.3594C11.2647 13.3582 11.2647 13.3569 11.2647 13.3557C11.1257 12.2122 11.9786 11.25 13.1616 11.25ZM22.4707 14.9744C21.9741 14.9821 21.5008 15.1866 21.1548 15.5429C20.8087 15.8993 20.6182 16.3783 20.625 16.875V20.625C20.6215 20.8735 20.6674 21.1201 20.76 21.3507C20.8527 21.5813 20.9902 21.7911 21.1647 21.9681C21.3392 22.145 21.547 22.2855 21.7763 22.3814C22.0055 22.4773 22.2515 22.5267 22.5 22.5267C22.7485 22.5267 22.9945 22.4773 23.2237 22.3814C23.453 22.2855 23.6608 22.145 23.8353 21.9681C24.0098 21.7911 24.1473 21.5813 24.24 21.3507C24.3326 21.1201 24.3785 20.8735 24.375 20.625V16.875C24.3784 16.6241 24.3315 16.3752 24.237 16.1428C24.1424 15.9104 24.0022 15.6993 23.8247 15.5221C23.6471 15.3449 23.4358 15.2051 23.2032 15.111C22.9706 15.0169 22.7216 14.9704 22.4707 14.9744ZM31.8457 14.9744C31.3491 14.9821 30.8758 15.1866 30.5298 15.5429C30.1837 15.8993 29.9932 16.3783 30 16.875V20.625C29.9965 20.8735 30.0424 21.1201 30.135 21.3507C30.2277 21.5813 30.3652 21.7911 30.5397 21.9681C30.7142 22.145 30.922 22.2855 31.1513 22.3814C31.3805 22.4773 31.6265 22.5267 31.875 22.5267C32.1235 22.5267 32.3695 22.4773 32.5987 22.3814C32.828 22.2855 33.0358 22.145 33.2103 21.9681C33.3848 21.7911 33.5223 21.5813 33.615 21.3507C33.7076 21.1201 33.7535 20.8735 33.75 20.625V16.875C33.7534 16.6241 33.7065 16.3752 33.612 16.1428C33.5174 15.9104 33.3772 15.6993 33.1997 15.5221C33.0221 15.3449 32.8108 15.2051 32.5782 15.111C32.3456 15.0169 32.0966 14.9704 31.8457 14.9744ZM41.2207 14.9744C40.7241 14.9821 40.2508 15.1866 39.9048 15.5429C39.5587 15.8993 39.3682 16.3783 39.375 16.875V20.625C39.3715 20.8735 39.4174 21.1201 39.51 21.3507C39.6027 21.5813 39.7402 21.7911 39.9147 21.9681C40.0892 22.145 40.297 22.2855 40.5263 22.3814C40.7555 22.4773 41.0015 22.5267 41.25 22.5267C41.4985 22.5267 41.7445 22.4773 41.9737 22.3814C42.203 22.2855 42.4108 22.145 42.5853 21.9681C42.7598 21.7911 42.8973 21.5813 42.99 21.3507C43.0826 21.1201 43.1285 20.8735 43.125 20.625V16.875C43.1284 16.6241 43.0815 16.3752 42.987 16.1428C42.8924 15.9104 42.7522 15.6993 42.5747 15.5221C42.3971 15.3449 42.1858 15.2051 41.9532 15.111C41.7206 15.0169 41.4716 14.9704 41.2207 14.9744ZM50.5957 14.9744C50.0991 14.9821 49.6258 15.1866 49.2798 15.5429C48.9337 15.8993 48.7432 16.3783 48.75 16.875V20.625C48.7465 20.8735 48.7924 21.1201 48.885 21.3507C48.9777 21.5813 49.1152 21.7911 49.2897 21.9681C49.4642 22.145 49.672 22.2855 49.9013 22.3814C50.1305 22.4773 50.3765 22.5267 50.625 22.5267C50.8735 22.5267 51.1195 22.4773 51.3487 22.3814C51.578 22.2855 51.7858 22.145 51.9603 21.9681C52.1348 21.7911 52.2723 21.5813 52.365 21.3507C52.4576 21.1201 52.5035 20.8735 52.5 20.625V16.875C52.5034 16.6241 52.4565 16.3752 52.362 16.1428C52.2674 15.9104 52.1272 15.6993 51.9497 15.5221C51.7721 15.3449 51.5608 15.2051 51.3282 15.111C51.0956 15.0169 50.8466 14.9704 50.5957 14.9744ZM59.9707 14.9744C59.4741 14.9821 59.0008 15.1866 58.6548 15.5429C58.3087 15.8993 58.1182 16.3783 58.125 16.875V20.625C58.1215 20.8735 58.1674 21.1201 58.26 21.3507C58.3527 21.5813 58.4902 21.7911 58.6647 21.9681C58.8392 22.145 59.047 22.2855 59.2763 22.3814C59.5055 22.4773 59.7515 22.5267 60 22.5267C60.2485 22.5267 60.4945 22.4773 60.7237 22.3814C60.953 22.2855 61.1608 22.145 61.3353 21.9681C61.5098 21.7911 61.6473 21.5813 61.74 21.3507C61.8326 21.1201 61.8785 20.8735 61.875 20.625V16.875C61.8784 16.6241 61.8315 16.3752 61.737 16.1428C61.6424 15.9104 61.5022 15.6993 61.3247 15.5221C61.1471 15.3449 60.9358 15.2051 60.7032 15.111C60.4706 15.0169 60.2216 14.9704 59.9707 14.9744ZM69.3457 14.9744C68.8491 14.9821 68.3758 15.1866 68.0298 15.5429C67.6837 15.8993 67.4932 16.3783 67.5 16.875V20.625C67.4965 20.8735 67.5424 21.1201 67.635 21.3507C67.7277 21.5813 67.8652 21.7911 68.0397 21.9681C68.2142 22.145 68.422 22.2855 68.6513 22.3814C68.8805 22.4773 69.1265 22.5267 69.375 22.5267C69.6235 22.5267 69.8695 22.4773 70.0987 22.3814C70.328 22.2855 70.5358 22.145 70.7103 21.9681C70.8848 21.7911 71.0223 21.5813 71.115 21.3507C71.2076 21.1201 71.2535 20.8735 71.25 20.625V16.875C71.2534 16.6241 71.2065 16.3752 71.112 16.1428C71.0174 15.9104 70.8772 15.6993 70.6997 15.5221C70.5221 15.3449 70.3108 15.2051 70.0782 15.111C69.8456 15.0169 69.5965 14.9704 69.3457 14.9744ZM78.7207 14.9744C78.2241 14.9821 77.7508 15.1866 77.4048 15.5429C77.0587 15.8993 76.8682 16.3783 76.875 16.875V20.625C76.8715 20.8735 76.9174 21.1201 77.01 21.3507C77.1027 21.5813 77.2402 21.7911 77.4147 21.9681C77.5892 22.145 77.797 22.2855 78.0263 22.3814C78.2555 22.4773 78.5015 22.5267 78.75 22.5267C78.9985 22.5267 79.2445 22.4773 79.4737 22.3814C79.703 22.2855 79.9108 22.145 80.0853 21.9681C80.2598 21.7911 80.3973 21.5813 80.49 21.3507C80.5826 21.1201 80.6285 20.8735 80.625 20.625V16.875C80.6284 16.6241 80.5815 16.3752 80.487 16.1428C80.3924 15.9104 80.2522 15.6993 80.0747 15.5221C79.8971 15.3449 79.6858 15.2051 79.4532 15.111C79.2206 15.0169 78.9715 14.9704 78.7207 14.9744ZM88.0957 14.9744C87.5991 14.9821 87.1258 15.1866 86.7798 15.5429C86.4337 15.8993 86.2432 16.3783 86.25 16.875V20.625C86.2465 20.8735 86.2924 21.1201 86.385 21.3507C86.4777 21.5813 86.6152 21.7911 86.7897 21.9681C86.9642 22.145 87.172 22.2855 87.4013 22.3814C87.6305 22.4773 87.8765 22.5267 88.125 22.5267C88.3735 22.5267 88.6195 22.4773 88.8487 22.3814C89.078 22.2855 89.2858 22.145 89.4603 21.9681C89.6348 21.7911 89.7723 21.5813 89.865 21.3507C89.9576 21.1201 90.0035 20.8735 90 20.625V16.875C90.0034 16.6241 89.9565 16.3752 89.862 16.1428C89.7674 15.9104 89.6272 15.6993 89.4497 15.5221C89.2721 15.3449 89.0608 15.2051 88.8282 15.111C88.5956 15.0169 88.3465 14.9704 88.0957 14.9744ZM97.4707 14.9744C96.9741 14.9821 96.5008 15.1866 96.1548 15.5429C95.8087 15.8993 95.6182 16.3783 95.625 16.875V20.625C95.6215 20.8735 95.6674 21.1201 95.76 21.3507C95.8527 21.5813 95.9902 21.7911 96.1647 21.9681C96.3392 22.145 96.547 22.2855 96.7763 22.3814C97.0055 22.4773 97.2515 22.5267 97.5 22.5267C97.7485 22.5267 97.9945 22.4773 98.2237 22.3814C98.453 22.2855 98.6608 22.145 98.8353 21.9681C99.0098 21.7911 99.1473 21.5813 99.24 21.3507C99.3326 21.1201 99.3785 20.8735 99.375 20.625V16.875C99.3784 16.6241 99.3315 16.3752 99.237 16.1428C99.1424 15.9104 99.0022 15.6993 98.8247 15.5221C98.6471 15.3449 98.4358 15.2051 98.2032 15.111C97.9706 15.0169 97.7215 14.9704 97.4707 14.9744ZM31.875 30C29.6081 30 27.8182 32.0915 28.1726 34.3323L32.8967 64.3359C33.1833 66.145 34.7707 67.5 36.6028 67.5H72.8064L71.51 78.4863L60.2051 81.9324L50.3247 78.5852L49.6692 74.4177C49.6692 74.4165 49.6692 74.4153 49.6692 74.4141C49.3826 72.6051 47.7989 71.25 45.9668 71.25H38.3752C36.1063 71.25 34.3186 73.3421 34.6692 75.5823C34.6692 75.5835 34.6692 75.5847 34.6692 75.5859L36.5698 87.6562C36.7843 89.0183 37.7449 90.1621 39.0564 90.6042L58.8428 97.3059C58.844 97.3059 58.8452 97.3059 58.8464 97.3059C59.2255 97.4334 59.6264 97.5 60.0256 97.5C60.388 97.5 60.7487 97.4454 61.0986 97.3389L82.9321 90.6885C84.3416 90.2589 85.373 89.0247 85.5432 87.5574L89.187 56.6931C89.4493 54.4948 87.6808 52.5 85.4663 52.5H46.2195L45.0366 45H87.2388C89.1227 45 90.7421 43.5626 90.9631 41.6895V41.6858L91.853 34.1528C92.1106 31.9726 90.3532 30 88.158 30H31.875ZM31.875 33.75H88.125L87.2388 41.25H45.0366C42.7676 41.25 40.9798 43.3448 41.3342 45.5859L42.5134 53.0859C42.8 54.895 44.3874 56.25 46.2195 56.25H85.4626L81.8225 87.1033L60.0256 93.7463L40.2722 87.0557L38.3752 75.0037V75H45.9668L46.7981 80.2881C46.8517 80.626 46.9967 80.9429 47.2175 81.2043C47.4382 81.4658 47.7263 81.6618 48.0505 81.7712L59.5752 85.675C59.946 85.8007 60.3468 85.8071 60.7214 85.6934L73.7732 81.7163C74.1223 81.6105 74.4329 81.4052 74.6671 81.1255C74.9013 80.8458 75.0488 80.5039 75.0916 80.1416L76.5308 67.9395C76.7897 65.7422 75.0209 63.75 72.8064 63.75H36.6028L31.875 33.75ZM78.761 97.9871C78.5912 97.9886 78.4224 98.0133 78.2593 98.0603L74.5093 99.0747C74.2656 99.1335 74.0362 99.2406 73.8347 99.3897C73.6331 99.5387 73.4635 99.7266 73.3358 99.9423C73.2081 100.158 73.125 100.397 73.0913 100.645C73.0576 100.894 73.074 101.146 73.1397 101.388C73.2053 101.63 73.3187 101.857 73.4733 102.054C73.6279 102.251 73.8205 102.416 74.0397 102.537C74.2589 102.659 74.5002 102.735 74.7494 102.762C74.9987 102.789 75.2507 102.765 75.4907 102.693L79.2407 101.678C79.6841 101.565 80.0705 101.293 80.3272 100.913C80.5838 100.534 80.6929 100.074 80.6339 99.6205C80.5749 99.1666 80.3519 98.7499 80.0069 98.449C79.6619 98.1481 79.2188 97.9838 78.761 97.9871ZM50.5811 100.375C50.129 100.381 49.6944 100.55 49.3571 100.851C49.0199 101.152 48.8028 101.565 48.7457 102.013C48.6886 102.462 48.7955 102.916 49.0466 103.291C49.2977 103.667 49.6762 103.94 50.1123 104.059L60.0439 106.879L67.9907 104.725C68.2344 104.666 68.4638 104.559 68.6653 104.41C68.8669 104.261 69.0365 104.073 69.1642 103.858C69.2919 103.642 69.375 103.403 69.4087 103.155C69.4424 102.906 69.4259 102.654 69.3603 102.412C69.2947 102.17 69.1812 101.943 69.0266 101.746C68.8721 101.549 68.6795 101.384 68.4603 101.263C68.2411 101.141 67.9998 101.065 67.7506 101.038C67.5013 101.011 67.2493 101.035 67.0093 101.107L60.0696 102.99L51.1377 100.452C50.9571 100.398 50.7694 100.372 50.5811 100.375Z" fill="#FF304F"/>
</g>
<defs>
<clipPath id="clip0">
<rect width="120" height="120" fill="white"/>
</clipPath>
</defs>
</svg>
