<svg height="100%" width="100%" id="svg" viewBox="0 0 1440 700" xmlns="http://www.w3.org/2000/svg" class="transition duration-300 ease-in-out delay-150"><path d="M 0,700 C 0,700 0,140 0,140 C 62.8230848505668,154.78735829611819 125.6461697011336,169.57471659223637 192,166 C 258.3538302988664,162.42528340776363 328.2384060460323,140.4884919271728 404,124 C 479.7615939539677,107.51150807282723 561.4002061147373,96.4713156990725 638,119 C 714.5997938852627,141.5286843009275 786.1607694950187,197.62624527653728 846,190 C 905.8392305049813,182.37375472346272 953.9567159051874,111.02370319477842 1016,90 C 1078.0432840948126,68.97629680522158 1154.0123668842323,98.27894194434901 1227,115 C 1299.9876331157677,131.72105805565099 1369.9938165578837,135.8605290278255 1440,140 C 1440,140 1440,700 1440,700 Z" stroke="none" stroke-width="0" fill="#010c2d44" class="transition-all duration-300 ease-in-out delay-150"></path><path d="M 0,700 C 0,700 0,280 0,280 C 52.59498454139472,307.0140845070423 105.18996908278945,334.02816901408454 170,325 C 234.81003091721055,315.97183098591546 311.83510821023697,270.90140845070425 394,258 C 476.16489178976303,245.09859154929578 563.4695980762625,264.3661971830986 642,281 C 720.5304019237375,297.6338028169014 790.2864994847132,311.6338028169014 844,311 C 897.7135005152868,310.3661971830986 935.384403984885,295.09859154929575 1002,275 C 1068.615596015115,254.90140845070425 1164.175884575747,229.9718309859155 1242,230 C 1319.824115424253,230.0281690140845 1379.9120577121266,255.01408450704224 1440,280 C 1440,280 1440,700 1440,700 Z" stroke="none" stroke-width="0" fill="#010c2d66" class="transition-all duration-300 ease-in-out delay-150"></path><path d="M 0,700 C 0,700 0,420 0,420 C 61.55754036413603,391.08485056681553 123.11508072827206,362.16970113363107 185,377 C 246.88491927172794,391.83029886636893 309.0972174510477,450.40604603229133 392,449 C 474.9027825489523,447.59395396770867 578.4960494675369,386.2061147372037 651,392 C 723.5039505324631,397.7938852627963 764.9185846788046,470.7694950188939 828,471 C 891.0814153211954,471.2305049811061 975.8296118172452,398.71590518722087 1052,370 C 1128.1703881827548,341.28409481277913 1195.7629680522155,356.3668842322226 1259,372 C 1322.2370319477845,387.6331157677774 1381.1185159738923,403.81655788388866 1440,420 C 1440,420 1440,700 1440,700 Z" stroke="none" stroke-width="0" fill="#010c2d88" class="transition-all duration-300 ease-in-out delay-150"></path><path d="M 0,700 C 0,700 0,560 0,560 C 56.84781861903126,556.2535211267606 113.69563723806252,552.5070422535211 178,554 C 242.30436276193748,555.4929577464789 314.0652696667812,562.2253521126761 383,568 C 451.9347303332188,573.7746478873239 518.0432840948127,578.5915492957747 600,583 C 681.9567159051873,587.4084507042253 779.7615939539678,591.4084507042253 848,583 C 916.2384060460322,574.5915492957747 954.9103400893164,553.7746478873239 1010,550 C 1065.0896599106836,546.2253521126761 1136.5970456887667,559.4929577464789 1211,564 C 1285.4029543112333,568.5070422535211 1362.7014771556167,564.2535211267606 1440,560 C 1440,560 1440,700 1440,700 Z" stroke="none" stroke-width="0" fill="#010c2dff" class="transition-all duration-300 ease-in-out delay-150"></path></svg>
