<svg width="120" height="149" viewBox="0 0 120 149" fill="none" xmlns="http://www.w3.org/2000/svg">
<g clip-path="url(#clip0)">
<path d="M117.216 88.2458L116.678 89.6389C107.525 107.462 91.3073 118.399 68.1725 118.881C57.358 119.104 47.0533 116.328 40.3224 113.311C25.7939 106.785 13.5771 94.6792 6.90257 81.7482C-2.66824 63.2095 -4.39551 37.4209 15.5075 18.1587C15.8142 18.1587 13.0935 22.3367 13.4002 22.3367L12.8524 24.119C-1.48876 69.0204 42.6997 107.5 85.6523 103.099C95.9754 102.04 109.14 96.3882 117.216 88.2458Z" fill="#FF304F"/>
<path d="M118.915 32.1945C117.235 36.0474 107.562 43.3248 103.291 44.2343C86.377 47.8357 75.5429 39.8152 69.8709 30.69C69.0256 29.3257 67.4661 25.6025 67.1883 24.6563C64.9879 17.1732 65.9996 5.85807 72.564 0C70.5865 5.56975 70.2995 12.0398 71.3387 16.2453C71.9704 18.7891 73.8916 23.2265 75.8129 26.0206C79.3133 31.1081 81.5307 32.3426 86.0245 35.0436C88.048 36.2597 90.2208 37.2348 91.1579 37.5034C95.4184 38.7576 104.414 42.0628 118.915 32.1945Z" fill="#FF304F"/>
<path d="M91.2234 69.6796C102.029 69.7543 113.318 64.7035 120.001 57.6109C114.152 72.4553 97.2204 81.9986 74.5141 78.9621C55.501 76.4196 37.3894 57.2872 35.5232 38.1168C34.159 24.1635 39.0237 15.8364 47.0349 5.73749C44.2501 11.0202 43.2108 15.0947 42.95 17.6948C39.9057 47.8737 67.0585 69.5223 91.2234 69.6796Z" fill="#FF304F"/>
</g>
<defs>
<clipPath id="clip0">
<rect width="120" height="148.617" fill="white"/>
</clipPath>
</defs>
</svg>
