<svg width="120" height="120" viewBox="0 0 120 120" fill="none" xmlns="http://www.w3.org/2000/svg">
<path d="M96.2484 42.3563C95.05 41.9469 93.843 41.5656 92.6273 41.2125C92.8289 40.3922 93.0148 39.5672 93.1852 38.7375C95.9273 25.4016 94.1344 14.6578 88.0148 11.1211C82.1555 7.72734 72.5461 11.2641 62.8523 19.7203C61.8992 20.5547 60.9656 21.4141 60.0516 22.2984C59.4422 21.7109 58.8172 21.1359 58.1766 20.5734C48.0164 11.5312 37.8328 7.72265 31.7203 11.2711C25.8609 14.6719 24.1195 24.7711 26.5875 37.4109C26.8344 38.6609 27.1117 39.9055 27.4195 41.1445C26.0188 41.5416 24.63 41.9793 23.2547 42.457C11.3578 46.6172 3.75 53.1398 3.75 59.9039C3.75 66.893 11.9156 73.9008 24.3211 78.15C25.3273 78.4922 26.343 78.8102 27.368 79.1039C27.0352 80.4305 26.7406 81.7719 26.4844 83.1281C24.1406 95.55 25.9688 105.41 31.8164 108.79C37.8563 112.28 47.9883 108.694 57.8648 100.045C58.6461 99.3609 59.4273 98.6383 60.2086 97.8774C61.1961 98.832 62.2117 99.7586 63.2555 100.657C72.818 108.902 82.2609 112.233 88.0992 108.844C94.1344 105.342 96.0961 94.7485 93.5484 81.8602C93.3531 80.8758 93.1281 79.8711 92.8734 78.8461C93.5859 78.6352 94.2836 78.4172 94.9664 78.1922C107.857 73.9102 116.255 66.9867 116.255 59.9109C116.25 53.1141 108.398 46.5492 96.2484 42.3563ZM66.0141 23.3531C74.318 16.1086 82.0805 13.2492 85.6195 15.293C89.3859 17.4703 90.8508 26.25 88.4836 37.7648C88.3273 38.5148 88.1586 39.2625 87.9773 40.0078C83.0218 38.8806 77.9966 38.0851 72.9352 37.6266C70.0372 33.4521 66.8604 29.4782 63.4266 25.732C64.2672 24.9164 65.1281 24.1234 66.0094 23.3531H66.0141ZM36.968 65.6836C37.9852 67.6523 39.0484 69.5969 40.1578 71.5172C41.2875 73.4766 42.4648 75.407 43.6898 77.3086C40.2072 76.93 36.7464 76.3722 33.3211 75.6375C34.3148 72.4219 35.5383 69.082 36.968 65.6836ZM36.968 54.3563C35.5617 51.0305 34.3711 47.7586 33.3937 44.5992C36.6047 43.8797 40.0266 43.2914 43.5938 42.8461C42.3984 44.7117 41.2484 46.6047 40.1437 48.525C39.0391 50.4453 37.9781 52.3891 36.9609 54.3563H36.968ZM39.5227 60.0211C41.0039 56.932 42.5992 53.9023 44.3086 50.932C46.0164 47.9633 47.8344 45.0625 49.7625 42.2297C53.1094 41.9766 56.5406 41.843 60.007 41.843C63.4734 41.843 66.9258 41.9766 70.2703 42.232C72.1781 45.0586 73.9852 47.9492 75.6914 50.9039C77.3977 53.8586 79.0141 56.8742 80.5406 59.9508C79.0344 63.0508 77.4219 66.093 75.7031 69.0774C73.9984 72.0461 72.2016 74.9555 70.3125 77.8055C66.9727 78.0399 63.5156 78.1688 60 78.1688C56.4844 78.1688 53.093 78.0586 49.8141 77.8453C47.8719 75.0031 46.0391 72.0899 44.3156 69.1055C42.5922 66.1211 40.9922 63.093 39.5156 60.0211H39.5227ZM79.8633 71.4844C80.9961 69.5188 82.0836 67.5274 83.1258 65.5102C84.5544 68.7494 85.8155 72.0601 86.9039 75.4289C83.4384 76.2093 79.9343 76.8078 76.4062 77.2219C77.5969 75.3328 78.7492 73.4203 79.8633 71.4844ZM83.0789 54.3586C82.0414 52.382 80.9625 50.4289 79.8422 48.4992C78.7484 46.5961 77.6086 44.7164 76.4227 42.8602C80.0109 43.3148 83.4539 43.9195 86.6813 44.6578C85.6436 47.9497 84.4413 51.1873 83.0789 54.3586ZM60.0539 29.175C62.3943 31.7323 64.6041 34.406 66.675 37.1859C62.2453 36.975 57.8125 36.975 53.3766 37.1859C55.5633 34.2938 57.8016 31.6102 60.0539 29.175ZM34.1391 15.4359C37.9031 13.2516 46.2258 16.3734 54.9984 24.1711C55.5586 24.6703 56.1234 25.193 56.6859 25.7344C53.2344 29.48 50.0352 33.4504 47.1094 37.6195C42.0592 38.0746 37.0439 38.8575 32.0953 39.9633C31.8094 38.8133 31.5516 37.6555 31.3219 36.4898C29.2008 25.6547 30.6047 17.4867 34.1391 15.4359ZM28.6523 74.4633C27.7148 74.1961 26.7891 73.9063 25.875 73.5938C20.3906 71.7188 15.8602 69.2719 12.75 66.607C9.96563 64.2188 8.55469 61.8352 8.55469 59.9039C8.55469 55.8 14.6625 50.5641 24.8484 47.0133C26.1281 46.568 27.4188 46.1609 28.7203 45.7922C30.2331 50.6538 32.0652 55.4103 34.2047 60.0305C32.0397 64.7146 30.1849 69.5359 28.6523 74.4633ZM54.6984 96.4172C50.332 100.242 45.9586 102.954 42.1031 104.32C38.6391 105.546 35.8805 105.581 34.2141 104.618C30.6656 102.567 29.1891 94.6477 31.2023 84.0258C31.4414 82.7758 31.7148 81.5258 32.0227 80.2758C37.0208 81.3525 42.0864 82.0877 47.1844 82.4766C50.1388 86.6674 53.3644 90.6603 56.8406 94.4297C56.1422 95.1164 55.4273 95.7774 54.6984 96.4172ZM60.1875 90.975C57.9094 88.5117 55.6359 85.7859 53.4188 82.8563C55.5734 82.9406 57.7672 82.9828 60 82.9828C62.2922 82.9828 64.5609 82.9336 66.7969 82.8328C64.7335 85.6574 62.5275 88.375 60.1875 90.975ZM89.3719 97.6758C88.7016 101.295 87.3539 103.709 85.6875 104.674C82.1414 106.732 74.5594 104.058 66.3844 97.0055C65.4469 96.1992 64.5094 95.3344 63.5555 94.4274C66.964 90.6433 70.114 86.6343 72.9844 82.4274C78.1106 81.993 83.2008 81.206 88.2188 80.0719C88.4484 81 88.6516 81.9094 88.8281 82.8C89.9555 88.4953 90.1172 93.6469 89.3719 97.6758ZM93.45 73.6195C92.8359 73.8234 92.2031 74.0203 91.5609 74.2125C89.9875 69.328 88.0839 64.5561 85.8633 59.9297C88.0006 55.365 89.8297 50.6623 91.3383 45.8531C92.4891 46.1883 93.607 46.5398 94.6828 46.9125C105.094 50.5031 111.445 55.8188 111.445 59.9039C111.445 64.2633 104.585 69.9211 93.45 73.6195Z" fill="#FF304F"/>
<path d="M60 69.9726C61.9946 69.9791 63.9464 69.3936 65.608 68.2901C67.2697 67.1867 68.5665 65.615 69.3343 63.774C70.1022 61.9331 70.3064 59.9057 69.9213 57.9486C69.5361 55.9914 68.5789 54.1926 67.1707 52.7799C65.7626 51.3672 63.9669 50.404 62.0111 50.0125C60.0552 49.621 58.0271 49.8186 56.1837 50.5804C54.3402 51.3423 52.7643 52.634 51.6555 54.292C50.5466 55.9501 49.9547 57.8999 49.9547 59.8945C49.9519 61.216 50.2096 62.5251 50.7131 63.7469C51.2165 64.9688 51.9558 66.0794 52.8887 67.0154C53.8216 67.9514 54.9299 68.6943 56.1501 69.2017C57.3703 69.7091 58.6785 69.9711 60 69.9726Z" fill="#FF304F"/>
</svg>
