<svg width="120" height="120" viewBox="0 0 120 120" fill="none" xmlns="http://www.w3.org/2000/svg">
<path d="M60 0C26.8622 0 0 26.8622 0 60C0 93.1378 26.8622 120 60 120C93.1378 120 120 93.1378 120 60C120 26.8622 93.1378 0 60 0Z" fill="#FF304F"/>
<path d="M60 2.8125C28.4156 2.8125 2.8125 28.4156 2.8125 60C2.8125 91.5844 28.4156 117.188 60 117.188C91.5844 117.188 117.188 91.5844 117.188 60C117.188 28.4156 91.5844 2.8125 60 2.8125Z" fill="#010C2D"/>
<path d="M60 5.625C29.9691 5.625 5.625 29.9691 5.625 60C5.625 90.0309 29.9691 114.375 60 114.375C90.0309 114.375 114.375 90.0309 114.375 60C114.375 29.9691 90.0309 5.625 60 5.625Z" fill="#FF304F"/>
<path fill-rule="evenodd" clip-rule="evenodd" d="M67.5891 46.4194L67.5985 63.6834L74.5369 92.1591C75.0001 94.02 74.9776 95.9278 73.1354 96.3909C71.3026 96.8531 69.8485 96.3347 69.3854 94.4831L60.7191 68.0906H57.9422L49.6978 94.4831C49.0041 96.27 47.7263 97.0847 45.9478 96.3909C44.1797 95.7056 44.2069 93.6966 44.9016 91.9097L51.5935 63.9797V46.4194L31.8844 44.6672C30.1631 44.5284 28.9331 43.5769 29.0719 41.8547C29.2022 40.1231 30.8297 39.0937 32.5425 39.2325H63.7594L87.2494 39.195C88.9716 39.1303 90.8916 40.1137 90.9469 41.8547C91.0219 43.5675 88.9716 44.5931 87.2494 44.6672L67.5891 46.4194ZM65.9757 29.8191C65.9763 30.6611 65.8109 31.495 65.4889 32.273C65.167 33.0511 64.6948 33.758 64.0994 34.3534C63.504 34.9488 62.7971 35.421 62.019 35.743C61.241 36.0649 60.4071 36.2303 59.565 36.2297C56.0494 36.2297 53.1835 33.3637 53.1835 29.8191C53.1741 26.3034 56.04 23.4375 59.565 23.4375C63.1088 23.4375 65.9757 26.3034 65.9757 29.8191Z" fill="#010C2D"/>
</svg>
