<svg width="120" height="115" viewBox="0 0 120 115" fill="none" xmlns="http://www.w3.org/2000/svg">
<g clip-path="url(#clip0)">
<path d="M55.9559 4.4388C42.8218 5.31314 30.847 9.71099 20.9044 17.293C18.5176 19.12 13.8668 23.5701 11.9847 25.8277C3.55593 35.9676 -0.508408 47.7256 0.0507803 60.3841C0.528136 71.2156 4.60612 81.4207 11.9847 90.2947C13.8668 92.5524 18.5176 97.0024 20.9044 98.8294C26.5099 103.11 33.152 106.555 39.8622 108.669C52.5872 112.689 65.8986 112.845 78.6644 109.152C95.5355 104.258 109.283 92.6698 115.885 77.8059C117.78 73.5255 119.09 68.8405 119.744 63.999C120.085 61.402 120.085 54.7204 119.744 52.1235C118.326 41.5269 113.811 32.0004 106.351 23.8702C96.8176 13.4955 82.9743 6.59204 68.108 4.81725C63.9892 4.32134 59.6793 4.19084 55.9559 4.4388ZM66.526 7.23149C74.341 8.10584 80.9148 10.0111 87.666 13.3519C102.914 20.8818 113.62 34.4799 116.376 49.8136C117.303 54.9553 117.303 61.1671 116.376 66.3088C113.62 81.6426 102.914 95.2407 87.666 102.771C80.8739 106.137 74.3819 108.004 66.3896 108.917C63.4982 109.243 56.1742 109.243 53.3646 108.917C43.2037 107.73 34.4886 104.728 26.6327 99.6907C14.1532 91.6911 5.76541 79.6068 3.37863 66.2175C2.84672 63.1768 2.71033 61.5456 2.71033 58.0612C2.71033 53.559 3.13313 50.2312 4.19695 46.2249C9.12054 27.8766 24.9005 13.4041 45.2495 8.60175C48.4274 7.84484 51.537 7.36199 55.274 7.03574C57.2925 6.8661 64.3165 6.98354 66.526 7.23149Z" fill="#FF304F"/>
<path d="M17.1265 33.5925C14.276 34.0884 11.9983 35.2499 10.0616 37.1943C7.1702 40.1175 5.77905 43.9281 6.17457 47.8431C6.33824 49.4483 6.59737 50.427 7.21112 51.6537C8.09763 53.4807 9.51606 55.0337 11.33 56.2212C12.4757 56.9651 12.7757 57.0825 18.0402 59.1053C20.6998 60.1232 23.1548 61.1019 23.4957 61.2846C24.4368 61.8066 25.7188 63.1247 26.2235 64.0512C26.96 65.4606 27.2464 67.5617 26.8918 69.0102C26.7008 69.7932 26.1689 70.8242 25.637 71.4114L25.2006 71.9204L24.3141 71.7638C23.182 71.568 22.5274 71.2418 21.6136 70.4196C20.6725 69.5583 20.2634 68.8928 19.6769 67.1963C18.9813 65.2388 19.1586 65.291 15.6262 65.9957C13.1712 66.4655 12.2847 66.7265 8.97051 67.8618C6.87015 68.5796 5.01528 69.2973 4.85162 69.4539C4.41518 69.8324 4.44246 70.4849 4.94709 71.9073C5.75177 74.2041 6.91106 75.9789 8.75229 77.7276C11.3846 80.2071 14.576 81.8253 17.9584 82.3995C19.5132 82.6475 22.5547 82.6605 24.0822 82.3995C26.2644 82.0341 28.9649 80.9249 30.6561 79.6851C32.6064 78.2627 36.2888 74.8305 37.1072 73.6821L37.7482 72.7817L37.8164 77.1273C37.8573 79.5285 37.9391 81.5904 38.0073 81.7209C38.0619 81.8514 38.2392 82.008 38.3756 82.0733C38.5256 82.1516 43.3264 82.2038 51.2505 82.2038H63.8936L64.2891 81.8253L64.6846 81.4469V77.7015V73.9431L63.989 72.7295C63.6208 72.0639 63.2389 71.4636 63.1435 71.4114C63.048 71.3462 59.8838 71.2809 56.0922 71.2418L49.2047 71.1765L49.1638 65.6564L49.1365 60.1493H55.8331H62.5297L62.9116 59.7839L63.2935 59.4185L63.3753 60.332C63.6208 62.7462 64.3846 65.304 65.5029 67.4834C66.6759 69.7671 67.9716 71.4245 71.0948 74.6478C76.7412 80.4551 83.4924 83.0259 92.0302 82.5822C99.927 82.1777 106.801 78.4454 111.697 71.9204C112.666 70.6284 114.125 67.9793 114.657 66.5699C117.125 59.9535 116.348 52.1366 112.625 46.251C110.497 42.8711 107.36 39.7782 103.923 37.638C96.9538 33.3054 86.8066 32.8356 78.8962 36.4635C76.1684 37.7163 73.9999 39.2171 71.7086 41.4095C67.6169 45.3506 65.6666 48.0258 64.4255 51.4449C64.0027 52.6064 63.4844 54.7988 63.4299 55.6079C63.4162 55.8428 63.3753 55.1381 63.3344 54.0419C63.2526 52.0452 63.2526 52.0322 62.8707 51.719L62.4888 51.4058H55.8058H49.1365V47.7518V44.0978H55.724C61.4932 44.0978 62.3388 44.0717 62.6115 43.889C62.7752 43.7846 63.198 43.119 63.5253 42.4404L64.1391 41.1876V37.8729C64.1391 34.1015 64.0982 33.8927 63.2116 33.6708C62.8843 33.5795 58.5881 33.5273 50.6777 33.5273H38.6483L38.2665 33.8405L37.8846 34.1537L37.8164 46.8513L37.7482 59.549L37.3527 58.9617C35.5933 56.4039 33.793 55.2033 27.9965 52.7891C23.0184 50.7011 22.0228 50.1269 21.4499 48.9785C20.7134 47.543 21.6954 44.9721 23.2912 44.163C23.7549 43.9151 23.7958 43.9151 23.9185 44.1239C23.9867 44.2413 24.2459 44.5937 24.4914 44.9069C24.8869 45.4028 25.1733 45.5724 27.0418 46.3424C28.2011 46.8252 29.224 47.2298 29.3058 47.2298C29.6468 47.2298 35.4569 44.9721 35.7433 44.7242C36.1388 44.3588 36.1252 43.889 35.6887 42.8841C34.8977 41.0832 33.943 40.0262 30.7242 37.377C28.0101 35.1455 26.1553 34.2059 23.4412 33.6578C21.9682 33.3576 18.6813 33.3185 17.1265 33.5925ZM26.0871 38.4993C27.6283 38.682 29.074 39.1649 29.4558 39.6216C29.6332 39.8304 29.9468 40.3133 30.1787 40.7178L30.5742 41.4356L29.1149 41.9837L27.6555 42.5187L25.2006 41.1615C22.5819 39.713 22.0364 39.5303 20.4543 39.5172C19.5405 39.5042 19.4996 39.4911 19.8133 39.3215C20.3861 39.0213 21.9273 38.6037 22.9093 38.4993C24.2731 38.3427 24.805 38.3427 26.0871 38.4993ZM61.0022 39.204V39.7782L54.0055 39.8174C47.4999 39.8565 46.9816 39.8696 46.627 40.0914C45.9178 40.5482 45.8905 40.7309 45.8359 46.512L45.795 51.8625L46.136 52.515C46.4224 53.0631 46.627 53.2458 47.4044 53.6634L48.3318 54.1724L54.251 54.2507L60.1839 54.3159V56.1299V57.9308H53.6782C48.7819 57.9308 47.0771 57.9699 46.8316 58.1004C46.6406 58.1787 46.3406 58.5311 46.1633 58.8704L45.8359 59.4707L45.8632 66.8831C45.8632 72.3902 45.9178 74.3738 46.0405 74.6217C46.3678 75.2873 46.3678 75.2873 54.1555 75.2873H61.4113V76.266V77.2448H51.7688H42.1126L42.1535 57.9308L42.1808 38.6168H51.5915H61.0022V39.204ZM90.8027 39.465C92.2485 39.7782 94.6489 40.5351 94.5261 40.6395C94.4988 40.6656 94.0624 40.6004 93.5305 40.496C92.2075 40.2611 88.7842 40.2611 87.2567 40.5221C84.5971 40.9527 82.7286 41.7357 79.2917 43.8368C75.8138 45.9509 74.4772 47.0732 72.8815 49.2264C69.6628 53.5851 69.1172 60.2406 71.5722 65.1996C73.0588 68.2011 74.8727 70.0412 78.8143 72.5468C82.4968 74.8827 84.2153 75.6396 86.9976 76.1486C88.2932 76.3835 91.3074 76.4618 92.9849 76.3052L93.9397 76.2138L92.9849 76.5401C90.6118 77.3492 87.9386 77.7146 85.0745 77.5971C81.883 77.4797 79.3053 76.8663 76.8094 75.6788C73.9453 74.2955 72.4587 73.0035 70.5084 70.2239C66.9077 65.0822 65.8303 58.5833 67.5624 52.4106C68.1625 50.2574 68.9808 48.5739 70.3992 46.5642C71.8586 44.4632 73.0861 43.1973 74.5318 42.2708C77.2868 40.509 79.6872 39.6738 83.7106 39.0866C83.9425 39.0605 85.2518 39.0474 86.6429 39.0735C88.8115 39.0996 89.398 39.1518 90.8027 39.465ZM89.7117 44.8677C94.417 46.0683 98.4131 49.9442 99.7361 54.603C100.118 55.9341 100.268 59.2619 100.009 60.7757C99.5315 63.6206 98.3313 65.9174 96.2037 68.0184C93.9124 70.2891 91.4438 71.555 88.3751 72.0248C86.2747 72.351 82.7014 71.9987 81.392 71.3331C80.6965 70.9808 79.0871 69.5975 78.2279 68.6057C75.6092 65.5781 74.4909 62.5113 74.4909 58.3875C74.4909 53.9505 75.8956 50.4401 78.8552 47.4386C81.2829 44.9852 82.6604 44.4632 86.5066 44.5415C88.1159 44.5806 88.8797 44.6589 89.7117 44.8677ZM15.708 50.3357C16.8128 51.3666 17.8902 51.9539 21.6 53.4938C26.7554 55.634 29.2785 56.8737 30.3287 57.7611C33.3974 60.345 34.8159 63.3987 34.8159 67.4703C34.8159 70.1325 34.1885 72.2075 32.7564 74.2302C31.6653 75.7701 31.2562 76.1616 30.2742 76.6053C27.6965 77.7537 24.355 77.9103 21.3954 77.0229C20.3179 76.6967 18.6404 75.9659 18.7495 75.8745C18.7767 75.8484 19.0359 75.8745 19.3359 75.9398C20.1542 76.1225 21.6818 76.0964 22.6774 75.8615C23.6185 75.6527 25.0233 74.9871 27.7237 73.4603C29.8786 72.2466 31.1743 71.0721 31.8699 69.6758C32.5246 68.3969 32.6746 67.5486 32.6064 65.826C32.5246 64.0773 32.129 62.8637 31.188 61.5456C29.8923 59.7317 28.9921 59.2097 23.4548 57.0956C18.6131 55.2555 17.8084 54.8379 16.5264 53.5982C15.3534 52.4628 14.3442 50.3096 14.3578 48.9785L14.3714 48.6L14.6442 49.0959C14.7942 49.37 15.2716 49.9311 15.708 50.3357Z" fill="#FF304F"/>
</g>
<defs>
<clipPath id="clip0">
<rect width="120" height="114.82" fill="white"/>
</clipPath>
</defs>
</svg>
