<svg width="64" height="80" viewBox="0 0 64 80" fill="none" xmlns="http://www.w3.org/2000/svg">
<path d="M61.2812 16H9.71875C8.77098 16 8 16.771 8 17.7188V50.9479C8 51.8957 8.77098 52.6667 9.71875 52.6667H61.2812C62.229 52.6667 63 51.8957 63 50.9479V17.7188C63 16.771 62.229 16 61.2812 16ZM42.9562 34.6197L61.8542 18.9386V50.3009L42.9562 34.6197ZM9.14583 50.3009V18.9386L28.0438 34.6197L9.14583 50.3009ZM9.71875 17.1458H61.2812C61.5159 17.1458 61.7167 17.288 61.8053 17.4902L61.5299 17.7188L37.329 37.7999C36.2693 38.6794 34.7307 38.6794 33.671 37.7999L9.47013 17.7188L9.19472 17.4902C9.28326 17.288 9.48411 17.1458 9.71875 17.1458ZM9.71875 51.5208C9.64783 51.5208 9.58147 51.504 9.5188 51.4804L28.9411 35.3642L32.9392 38.6817C33.6811 39.2977 34.5903 39.6054 35.5 39.6054C36.4092 39.6054 37.3189 39.2971 38.0608 38.6817L42.0589 35.3642L61.4812 51.4804C61.4185 51.504 61.3522 51.5208 61.2812 51.5208H9.71875Z" fill="white"/>
</svg>
