<svg width="50" height="50" viewBox="0 0 50 50" fill="none" xmlns="http://www.w3.org/2000/svg">
<path d="M0 25C0 36.7217 8.06 46.575 18.9583 49.2717C19.4583 49.4 20.0167 48.955 20 48.4383V37.5C20 36.945 20.3283 36.4133 20.9383 36.0933C21.555 35.785 21.405 34.6667 20.73 34.5317C17.5633 33.8983 14.8633 32.6267 12.9683 30.9367C11.0767 29.245 10 27.19 10 25C10 23.475 10.545 22.0117 11.51 20.6767C11.61 20.54 11.6633 20.3767 11.6667 20.21V12.2383L18.2833 15.78C18.4867 15.89 18.7383 15.9083 18.9583 15.83C20.8133 15.28 22.83 15 25 15C27.17 15 29.1867 15.28 31.0417 15.8333C31.2617 15.9117 31.5133 15.8917 31.7183 15.7833L38.3333 12.2383V20.205C38.3367 20.3717 38.3917 20.5383 38.49 20.675C39.4567 22.0083 40 23.475 40 24.9983C40 27.19 38.925 29.245 37.0333 30.9367C35.1367 32.6267 32.4333 33.8967 29.2717 34.53C28.595 34.6633 28.4467 35.78 29.0633 36.09C29.6717 36.41 30 36.94 30 37.4967V48.435C29.9833 48.9517 30.5433 49.3967 31.0417 49.2683C41.9417 46.575 50 36.72 50 25C50 11.2033 38.7967 0 25 0C11.2033 0 0 11.2033 0 25ZM25 1.66667C37.8967 1.66667 48.3333 12.1033 48.3333 25C48.3333 35.55 41.2667 44.245 31.6667 47.1333V37.5C31.6667 36.8333 31.41 36.24 31.0417 35.7283C33.8133 34.9667 36.345 33.77 38.175 32.135C40.3433 30.2067 41.6667 27.7333 41.6667 25C41.6667 23.195 41.01 21.5433 40 20.05V10.8333C40.005 10.25 39.2567 9.81167 38.75 10.105L31.0933 14.2167C29.1933 13.7 27.16 13.3333 25 13.3333C22.8417 13.3333 20.805 13.6967 18.9067 14.2167L11.25 10.1067C10.7433 9.81333 9.995 10.2517 10 10.835V20.0517C8.99 21.545 8.33333 23.1967 8.33333 25.0017C8.33333 27.735 9.65833 30.2067 11.8233 32.135C13.6567 33.7717 16.19 34.9683 18.9567 35.7317C18.59 36.2417 18.3333 36.8317 18.3333 37.5017V40.315C16.5167 40.9917 15.3217 41.1367 14.5833 40.9917C13.7867 40.835 13.3567 40.425 12.8667 39.7417C11.88 38.37 10.9117 35.8417 7.70833 35.015C6.61833 34.7233 6.25 36.3483 7.29167 36.6317C9.805 37.2817 10.3 39.045 11.5083 40.7317C12.115 41.5733 12.985 42.3533 14.2717 42.6067C15.3433 42.8167 16.6417 42.6567 18.3333 42.085V47.135C8.73667 44.2467 1.66667 35.55 1.66667 25C1.66667 12.1033 12.1033 1.66667 25 1.66667Z" fill="white"/>
</svg>
