<svg width="50" height="51" viewBox="0 0 50 51" fill="none" xmlns="http://www.w3.org/2000/svg">
<g clip-path="url(#clip0)">
<path d="M11.7188 43.75V18.75" stroke="white" stroke-miterlimit="10"/>
<path d="M19.5312 43.75V18.75" stroke="white" stroke-miterlimit="10"/>
<path d="M39.8438 43.75V28.125" stroke="white" stroke-miterlimit="10"/>
<path d="M12.5 11.7188C13.7944 11.7188 14.8438 10.6694 14.8438 9.375C14.8438 8.08058 13.7944 7.03125 12.5 7.03125C11.2056 7.03125 10.1562 8.08058 10.1562 9.375C10.1562 10.6694 11.2056 11.7188 12.5 11.7188Z" stroke="white" stroke-miterlimit="10"/>
<path d="M39.75 28.6719C39.75 21.7656 36.5 18.5156 29.5938 18.5156C22.6875 18.5156 19.4375 21.7656 19.4375 28.6719" stroke="white" stroke-miterlimit="10"/>
<path d="M41.4062 0.78125H8.59375C4.27903 0.78125 0.78125 4.27903 0.78125 8.59375V41.4062C0.78125 45.721 4.27903 49.2188 8.59375 49.2188H41.4062C45.721 49.2188 49.2188 45.721 49.2188 41.4062V8.59375C49.2188 4.27903 45.721 0.78125 41.4062 0.78125Z" stroke="white" stroke-miterlimit="10"/>
</g>
<defs>
<clipPath id="clip0">
<rect width="50" height="50.0156" fill="white"/>
</clipPath>
</defs>
</svg>
