<svg width="51" height="50" viewBox="0 0 51 50" fill="none" xmlns="http://www.w3.org/2000/svg">
<path d="M16.0985 45.7659C34.3674 45.7659 44.3607 30.6198 44.3607 17.5037C44.3607 17.0821 44.3607 16.6449 44.3607 16.2233C46.2898 14.8137 47.9548 13.0747 49.2793 11.0862C47.4647 11.8787 45.5451 12.4047 43.58 12.6476C45.6494 11.4031 47.1972 9.45024 47.9364 7.15133C46.0081 8.30565 43.8952 9.11909 41.6906 9.55595C40.3254 8.11104 38.5584 7.10837 36.6178 6.67732C34.6772 6.24627 32.6519 6.40661 30.8033 7.13765C28.9547 7.86869 27.3676 9.13689 26.2467 10.7786C25.1257 12.4204 24.5225 14.3603 24.5147 16.3482C24.5146 17.1107 24.6037 17.8706 24.7802 18.6123C20.82 18.43 16.9432 17.4119 13.4044 15.625C9.86564 13.8382 6.74489 11.3229 4.24714 8.24434C2.98381 10.4367 2.60353 13.0281 3.18372 15.491C3.7639 17.9539 5.26094 20.1031 7.37003 21.501C5.77966 21.4796 4.21906 21.0666 2.82622 20.2987C2.81951 20.3401 2.81951 20.3822 2.82622 20.4236C2.82771 22.7189 3.62302 24.9431 5.07728 26.7189C6.53154 28.4948 8.55524 29.713 10.8052 30.167C9.94896 30.3926 9.06744 30.508 8.18198 30.5105C7.53112 30.4992 6.8828 30.426 6.24579 30.2919C6.88505 32.2803 8.134 34.017 9.81557 35.2557C11.4971 36.4945 13.526 37.1725 15.6145 37.1935C12.0935 39.9491 7.75016 41.4446 3.27904 41.4407C2.4858 41.4415 1.69324 41.3946 0.90564 41.3001C5.44839 44.215 10.7322 45.7649 16.1297 45.7659" stroke="white" stroke-linecap="round" stroke-linejoin="round"/>
</svg>
