<svg width="111" height="139" viewBox="0 0 111 139" fill="none" xmlns="http://www.w3.org/2000/svg">
<path d="M3.26471 0H45.7059C47.5089 0 48.9706 1.46166 48.9706 3.26471V45.7059C48.9706 47.5089 47.5089 48.9706 45.7059 48.9706H3.26471C1.46166 48.9706 0 47.5089 0 45.7059V3.26471C0 1.46166 1.46166 0 3.26471 0ZM6.52941 6.52941V42.4412H42.4412V6.52941H6.52941ZM86.5147 0C100.038 0 111 10.9624 111 24.4853C111 38.0081 100.038 48.9706 86.5147 48.9706C72.9919 48.9706 62.0294 38.0081 62.0294 24.4853C62.0294 10.9624 72.9919 0 86.5147 0ZM86.5147 6.52941C76.5979 6.52941 68.5588 14.5685 68.5588 24.4853C68.5588 34.4021 76.5979 42.4412 86.5147 42.4412C96.4315 42.4412 104.471 34.4021 104.471 24.4853C104.471 14.5685 96.4315 6.52941 86.5147 6.52941ZM24.4853 62.0294C38.0081 62.0294 48.9706 72.9919 48.9706 86.5147C48.9706 100.038 38.0081 111 24.4853 111C10.9624 111 0 100.038 0 86.5147C0 72.9919 10.9624 62.0294 24.4853 62.0294ZM24.4853 68.5588C14.5685 68.5588 6.52941 76.5979 6.52941 86.5147C6.52941 96.4315 14.5685 104.471 24.4853 104.471C34.4021 104.471 42.4412 96.4315 42.4412 86.5147C42.4412 76.5979 34.4021 68.5588 24.4853 68.5588ZM65.2941 62.0294H107.735C109.538 62.0294 111 63.4911 111 65.2941V107.735C111 109.538 109.538 111 107.735 111H65.2941C63.4911 111 62.0294 109.538 62.0294 107.735V65.2941C62.0294 63.4911 63.4911 62.0294 65.2941 62.0294ZM68.5588 104.471H104.471V68.5588H68.5588V104.471Z" fill="#FF304F"/>
</svg>
