<svg width="111" height="123" viewBox="0 0 111 123" fill="none" xmlns="http://www.w3.org/2000/svg">
<g clip-path="url(#clip0)">
<path fill-rule="evenodd" clip-rule="evenodd" d="M59.2214 29.8046C64.1038 27.396 69.5048 26.1177 75.0882 26.1177C94.9218 26.1177 111 42.1959 111 62.0294C111 81.8629 94.9218 97.9412 75.0882 97.9412C56.3552 97.9412 40.9723 83.5977 39.3229 65.2941H3.26471C0.715208 65.2941 -0.850454 62.5025 0.478985 60.327L36.3908 1.56232C37.6638 -0.520775 40.6892 -0.520775 41.9622 1.56232L59.2214 29.8046ZM75.0882 91.4118C91.3157 91.4118 104.471 78.2569 104.471 62.0294C104.471 45.802 91.3157 32.6471 75.0882 32.6471C70.718 32.6471 66.493 33.6007 62.6432 35.404L77.874 60.327C79.2034 62.5025 77.6378 65.2941 75.0882 65.2941H45.8852C47.5092 79.9851 59.9643 91.4118 75.0882 91.4118ZM9.08585 58.7647H69.2671L39.1765 9.52553L9.08585 58.7647Z" fill="#118DF0"/>
</g>
<defs>
<clipPath id="clip0">
<rect width="111" height="122.426" fill="white"/>
</clipPath>
</defs>
</svg>
