<svg width="111" height="134" viewBox="0 0 111 134" fill="none" xmlns="http://www.w3.org/2000/svg">
<path d="M80.8566 5.16148C80.3219 5.19203 79.8033 5.36366 79.3485 5.66051C78.8938 5.95736 78.5177 6.36983 78.255 6.85978L67.7447 26.0406L57.1997 45.2214C56.918 45.7287 56.7685 46.305 56.7662 46.8923C56.764 47.4795 56.909 48.0571 57.1868 48.5668C57.4646 49.0765 57.8653 49.5004 58.3486 49.7958C58.8319 50.0912 59.3808 50.2478 59.94 50.2497H81.03H102.12C102.679 50.2478 103.228 50.0912 103.711 49.7958C104.195 49.5004 104.595 49.0765 104.873 48.5668C105.151 48.0571 105.296 47.4795 105.294 46.8923C105.292 46.305 105.142 45.7287 104.86 45.2214L94.3153 26.0406L83.805 6.85978C83.5134 6.31595 83.0827 5.86867 82.5617 5.56854C82.0406 5.26841 81.45 5.12741 80.8566 5.16148ZM21.09 5.32798C12.5384 5.32798 5.55 12.0369 5.55 20.2464V37.296C5.55 45.5055 12.5384 52.2144 21.09 52.2144H38.85C47.4016 52.2144 54.39 45.5055 54.39 37.296V20.2464C54.39 12.0369 47.4016 5.32798 38.85 5.32798H21.09ZM21.09 11.7216H38.85C43.8271 11.7216 47.73 15.4683 47.73 20.2464V37.296C47.73 42.074 43.8271 45.8208 38.85 45.8208H21.09C16.1129 45.8208 12.21 42.074 12.21 37.296V20.2464C12.21 15.4683 16.1129 11.7216 21.09 11.7216ZM81.03 15.2181L88.8347 29.3706L96.57 43.5231H81.03H65.49L73.2253 29.3706L81.03 15.2181ZM29.97 54.3456C16.5227 54.3456 5.55 64.8792 5.55 77.7888C5.55 90.6982 16.5227 101.232 29.97 101.232C43.4174 101.232 54.39 90.6982 54.39 77.7888C54.39 64.8792 43.4174 54.3456 29.97 54.3456ZM72.15 54.3456C63.5984 54.3456 56.61 61.0545 56.61 69.264V86.3136C56.61 94.5231 63.5984 101.232 72.15 101.232H89.91C98.4616 101.232 105.45 94.5231 105.45 86.3136V69.264C105.45 61.0545 98.4616 54.3456 89.91 54.3456H72.15ZM29.97 60.7392C39.818 60.7392 47.73 68.3347 47.73 77.7888C47.73 87.2429 39.818 94.8384 29.97 94.8384C20.122 94.8384 12.21 87.2429 12.21 77.7888C12.21 68.3347 20.122 60.7392 29.97 60.7392ZM72.15 60.7392H89.91C94.8871 60.7392 98.79 64.4859 98.79 69.264V86.3136C98.79 91.0916 94.8871 94.8384 89.91 94.8384H72.15C67.1729 94.8384 63.27 91.0916 63.27 86.3136V69.264C63.27 64.4859 67.1729 60.7392 72.15 60.7392Z" fill="#17B978"/>
</svg>
