<svg width="111" height="139" viewBox="0 0 111 139" fill="none" xmlns="http://www.w3.org/2000/svg">
<path d="M72.8438 31.3922V3.46875H3.46875V72.8438H31.3922C32.0483 80.0665 34.7492 86.9526 39.1786 92.6954C43.6079 98.4381 49.5821 102.8 56.4013 105.269C63.2205 107.738 70.6022 108.213 77.6814 106.637C84.7607 105.061 91.2443 101.501 96.3725 96.3725C101.501 91.2443 105.061 84.7607 106.637 77.6814C108.213 70.6022 107.738 63.2205 105.269 56.4013C102.8 49.5821 98.4381 43.6079 92.6954 39.1786C86.9526 34.7492 80.0665 32.0483 72.8438 31.3922ZM10.4062 10.4062H65.9062V31.2188H65.6634H64.5188C63.6863 31.2188 62.8884 31.4269 62.0559 31.6003L60.7378 31.8778C60.0114 32.0376 59.2935 32.2344 58.5872 32.4675L57.2344 32.8837L55.1878 33.6469L53.9044 34.1672L51.9619 35.1038L50.7478 35.7628L48.84 36.9075L47.7647 37.6012L45.7875 39.0928L44.9897 39.7172C43.1736 41.3416 41.5236 43.1426 40.0641 45.0938L39.4397 45.8916L37.9481 47.8688L37.2544 48.9441L36.1097 50.8519L35.4506 52.0659L34.5141 54.0084L33.9938 55.2919C33.7163 55.9856 33.4734 56.6447 33.2306 57.3384C32.9878 58.0322 32.9184 58.2403 32.8144 58.6912C32.5813 59.3976 32.3845 60.1154 32.2247 60.8419C32.2247 61.2928 32.0166 61.7091 31.9472 62.16C31.8778 62.6109 31.6697 63.7903 31.5656 64.6228C31.4616 65.4553 31.5656 65.3859 31.5656 65.7675C31.4712 65.8551 31.3476 65.9045 31.2188 65.9062H10.4062V10.4062ZM69.375 100.594C63.2005 100.594 57.1647 98.7628 52.0308 95.3324C46.8969 91.9021 42.8955 87.0264 40.5326 81.3219C38.1698 75.6174 37.5515 69.3404 38.7561 63.2845C39.9607 57.2287 42.934 51.666 47.3 47.3C51.666 42.934 57.2287 39.9607 63.2845 38.7561C69.3404 37.5515 75.6174 38.1698 81.3219 40.5326C87.0264 42.8955 91.9021 46.8969 95.3324 52.0308C98.7628 57.1647 100.594 63.2005 100.594 69.375C100.594 77.6547 97.3046 85.5953 91.45 91.45C85.5953 97.3046 77.6547 100.594 69.375 100.594Z" fill="#775ADA"/>
</svg>
