<svg width="800" height="800" viewBox="0 0 800 800" fill="none" xmlns="http://www.w3.org/2000/svg">
<path d="M0 696.847C0 753.822 46.1844 800 103.153 800H696.844C753.822 800 800 753.816 800 696.847V103.156C800 46.1781 753.816 0 696.847 0H103.156C46.1781 0 0 46.1844 0 103.153V696.844V696.847Z" fill="#FF304F"/>
<path d="M331.744 353.869V240.578H431.466C440.966 240.578 450.122 241.369 458.941 242.953C467.76 244.534 475.563 247.359 482.347 251.431C489.129 255.503 494.557 261.156 498.629 268.391C502.697 275.628 504.735 284.9 504.735 296.203C504.735 316.556 498.629 331.256 486.416 340.3C474.207 349.347 458.604 353.869 439.607 353.869H331.744V353.869ZM225.234 157.812V642.187H459.96C481.669 642.187 502.813 639.475 523.391 634.047C543.969 628.619 562.285 620.253 578.341 608.947C594.394 597.641 607.173 583.053 616.67 565.191C626.17 547.325 630.916 526.181 630.916 501.759C630.916 471.456 623.566 445.566 608.869 424.084C594.169 402.6 571.894 387.562 542.044 378.969C563.754 368.569 580.151 355.225 591.232 338.944C602.31 322.662 607.851 302.313 607.851 277.888C607.851 255.275 604.119 236.281 596.657 220.903C589.194 205.528 578.679 193.203 565.11 183.931C551.544 174.659 535.263 167.987 516.266 163.919C497.272 159.847 476.241 157.812 453.175 157.812H225.234V157.812ZM331.744 559.422V426.456H447.747C470.813 426.456 489.357 431.769 503.379 442.4C517.397 453.028 524.41 470.778 524.41 495.653C524.41 508.319 522.26 518.719 517.963 526.859C513.666 535 507.901 541.447 500.663 546.194C493.429 550.944 485.06 554.334 475.563 556.372C466.063 558.403 456.116 559.422 445.713 559.422H331.744V559.422Z" fill="#010C2D"/>
</svg>
