<svg width="120" height="90" viewBox="0 0 120 90" fill="none" xmlns="http://www.w3.org/2000/svg">
<g clip-path="url(#clip0)">
<path d="M103.266 51.7031C99.0703 51.7268 95.4374 52.7344 92.3906 54.2346C91.2656 52.0081 90.1406 50.0625 89.9533 48.6096C89.7424 46.9221 89.4846 45.8906 89.7424 43.8753C89.9999 41.8594 91.1718 39 91.1718 38.7656C91.1481 38.5547 90.9138 37.5235 88.5 37.5C86.0861 37.4766 84 37.9688 83.7656 38.6016C83.5312 39.2344 83.0625 40.6875 82.7578 42.1875C82.3359 44.3906 77.9296 52.1953 75.4218 56.2969C74.6015 54.7031 73.8984 53.2969 73.7575 52.1717C73.5468 50.4844 73.2888 49.4529 73.5468 47.4375C73.8046 45.4217 74.9765 42.5625 74.9765 42.3281C74.9531 42.1172 74.7187 41.086 72.3049 41.0625C69.8906 41.0391 67.8049 41.5313 67.5705 42.1641C67.3361 42.7969 67.0783 44.2969 66.5627 45.75C66.0703 47.2031 60.2109 60.2344 58.6875 63.6328C57.914 65.3672 57.2346 66.75 56.7422 67.6875C56.25 68.625 56.7187 67.7578 56.6719 67.8516C56.25 68.6485 56.0156 69.0938 56.0156 69.0938V69.1175C55.6875 69.7034 55.3359 70.2657 55.1716 70.2657C55.0544 70.2657 54.8201 68.6953 55.2185 66.5393C56.0857 62.0157 58.1951 54.9612 58.1719 54.7034C58.1719 54.5862 58.5701 53.3438 56.8122 52.7112C55.1013 52.0784 54.4922 53.1331 54.3513 53.1331C54.2107 53.1331 54.0935 53.5081 54.0935 53.5081C54.0935 53.5081 55.9919 45.563 50.4607 45.563C46.9919 45.563 42.2107 49.3364 39.8435 52.7817C38.3435 53.6021 35.156 55.3362 31.781 57.188C30.492 57.8911 29.156 58.6411 27.8904 59.3208L27.6328 59.0391C20.9297 51.8906 8.53128 46.8281 9.04691 37.2188C9.23441 33.7266 10.4532 24.5156 32.8596 13.3594C51.2112 4.21876 65.9065 6.72657 68.4609 12.3047C72.0937 20.2734 60.6094 35.086 41.5315 37.2188C34.2659 38.0391 30.4453 35.2266 29.4846 34.1719C28.4768 33.0703 28.3362 33.0235 27.9612 33.2344C27.3518 33.5625 27.7268 34.5469 27.9612 35.1328C28.5237 36.6094 30.8674 39.2344 34.8518 40.5469C38.3438 41.6953 46.8752 42.3281 57.1877 38.3438C68.7424 33.8672 77.7658 21.4453 75.1174 11.0625C72.4221 0.492192 54.8908 -2.97656 38.3205 2.90625C28.4531 6.42188 17.7656 11.9063 10.0782 19.1016C0.937539 27.6328 -0.515585 35.086 0.0937897 38.1797C2.22683 49.2188 17.4375 56.4141 23.5313 61.7344C23.2266 61.8982 22.9453 62.0623 22.6875 62.2032C19.6406 63.7029 8.03909 69.7735 5.13285 76.1951C1.8516 83.4607 5.64847 88.6875 8.17972 89.3907C16.0078 91.5704 24.0235 87.6563 28.3594 81.211C32.6716 74.7657 32.1563 66.3985 30.1641 62.5782L30.0935 62.4375L32.4841 61.0313C34.0313 60.1172 35.5547 59.2735 36.8904 58.5467C36.1406 60.5857 35.6013 62.9998 35.3203 66.5154C34.9922 70.6407 36.6797 75.9842 38.9062 78.0936C39.8906 79.0074 41.0625 79.0311 41.7891 79.0311C44.3672 79.0311 45.5391 76.898 46.8281 74.3436C48.4219 71.2264 49.8281 67.617 49.8281 67.617C49.8281 67.617 48.0703 77.3904 52.875 77.3904C54.6328 77.3904 56.3906 75.117 57.1875 73.9451V73.9686C57.1875 73.9686 57.2344 73.8982 57.3281 73.7342C57.4264 73.5888 57.5202 73.4403 57.6094 73.2891V73.2422C58.3125 72.0235 59.8828 69.2344 62.2265 64.6172C65.2497 58.6641 68.1562 51.211 68.1562 51.211C68.1562 51.211 68.4375 53.0391 69.3047 56.0391C69.82 57.8206 70.945 59.7657 71.8122 61.6641C71.1091 62.6485 70.6872 63.2112 70.6872 63.2112L70.7107 63.2346C70.1484 63.9846 69.5154 64.7817 68.8593 65.5784C66.4687 68.4378 63.6093 71.6958 63.2343 72.6333C62.789 73.7346 62.8828 74.555 63.75 75.2114C64.3828 75.6802 65.5078 75.7737 66.7031 75.6802C68.8593 75.5393 70.3593 75.0005 71.1093 74.6721C72.2812 74.2503 73.6171 73.6175 74.9062 72.68C77.25 70.9458 78.6796 68.4849 78.539 65.2036C78.4687 63.3989 77.8828 61.6177 77.1562 59.9302C77.3671 59.6255 77.5783 59.3206 77.789 58.9927C81.4921 53.5784 84.3515 47.6255 84.3515 47.6255C84.3515 47.6255 84.6328 49.4536 85.4999 52.4536C85.945 53.9771 86.8359 55.6413 87.6328 57.282C84.164 60.1179 81.9843 63.3992 81.2343 65.5554C79.8515 69.5398 80.9296 71.3445 82.9687 71.7664C83.8825 71.9539 85.1953 71.532 86.1794 71.1101C87.3982 70.7117 88.8747 70.0317 90.2343 69.0242C92.5781 67.2898 94.8281 64.8757 94.7109 61.6179C94.6406 60.1179 94.2421 58.6414 93.7031 57.2351C96.6562 56.0164 100.476 55.3132 105.328 55.8992C115.758 57.1179 117.82 63.6335 117.422 66.3523C117.024 69.0713 114.844 70.571 114.117 71.0398C113.391 71.4851 113.156 71.6494 113.226 71.9773C113.32 72.4697 113.648 72.4461 114.281 72.3525C115.148 72.2117 119.766 70.126 119.953 65.1106C120.234 58.6643 114.117 51.6331 103.266 51.7031ZM22.8281 78.8203C19.3828 82.5938 14.5313 84.0235 12.4688 82.8047C10.2422 81.5157 11.1092 75.961 15.3516 71.9532C17.9297 69.5157 21.2813 67.2657 23.4844 65.8828C23.9766 65.5782 24.7266 65.1331 25.6172 64.5938C25.7578 64.5003 25.8516 64.4532 25.8516 64.4532C26.0156 64.3594 26.2031 64.2422 26.3906 64.125C27.9609 69.8438 26.461 74.8594 22.8281 78.8203ZM48.0234 61.6875C46.8281 64.6172 44.2969 72.1407 42.7734 71.7188C41.4607 71.3672 40.6641 65.6719 42.5154 60.0469C43.4529 57.2107 45.4451 53.836 46.6169 52.5232C48.5156 50.4138 50.5779 49.7107 51.0937 50.5779C51.7031 51.7031 48.7734 59.8594 48.0234 61.6875ZM68.8125 71.625C68.2968 71.8831 67.8281 72.0703 67.6172 71.93C67.4531 71.8362 67.8279 71.4846 67.8279 71.4846C67.8279 71.4846 70.4294 68.6956 71.4607 67.4065C72.0466 66.6568 72.7497 65.7896 73.4997 64.805V65.0862C73.5 68.461 70.2656 70.711 68.8125 71.625ZM84.8435 67.9688C84.4685 67.6875 84.5156 66.8203 85.781 64.1016C86.2734 63.0235 87.3982 61.2188 89.3435 59.5078C89.5778 60.211 89.7187 60.8904 89.695 61.5235C89.6718 65.7422 86.6718 67.3125 84.8435 67.9688Z" fill="#FF304F"/>
</g>
<defs>
<clipPath id="clip0">
<rect width="120" height="90" fill="white"/>
</clipPath>
</defs>
</svg>
