<svg width="164" height="164" viewBox="0 0 164 164" fill="none" xmlns="http://www.w3.org/2000/svg">
<g clip-path="url(#clip0)">
<path fill-rule="evenodd" clip-rule="evenodd" d="M33.9128 115.653L6.8453 87.3316V109.749C6.8453 113.511 7.68059 114.295 12.1229 114.295V115.288H0V114.295H0.208822C3.44812 114.295 4.49427 113.198 4.49427 110.793V85.0845C3.29227 84.2482 1.93339 83.8305 0.103901 83.7786V82.7854H8.30808L32.9206 108.442V87.6454C32.9206 84.458 31.9804 83.8835 27.7999 83.7786V82.7854H40.0277V83.7786C36.108 83.7786 35.2727 84.458 35.2727 86.4953V115.653H33.9128ZM71.5446 103.531H70.5514C70.1338 99.8203 69.1406 99.4026 66.9984 99.4026H58.1678V110.532C58.1678 112.936 59.057 113.407 60.9904 113.407H69.0377C72.6957 113.407 73.7928 111.995 75.0997 107.502H76.0399L75.2036 115.288H47.4557V114.295H48.9195C53.1 114.295 53.8314 113.145 53.8314 110.01V87.9591C53.8314 85.0325 53.1519 83.7786 49.6509 83.7786H48.5008V82.7854H73.5839L74.0016 90.0484H73.0614C72.3819 85.607 71.075 84.6658 69.1946 84.6658H58.1678V97.5212H67.522C69.4034 97.5212 70.2917 96.6319 70.5525 93.6014H71.5456V103.531H71.5446ZM95.0153 110.48C92.9759 112.936 93.1328 114.295 96.5829 114.295H97.6271V115.288H85.1904V114.295C88.8474 113.982 90.2602 113.092 93.9161 108.704L102.016 98.932L93.9172 88.7425C90.6779 84.6668 89.319 83.8825 85.1914 83.7786V82.7854H100.763V83.7786C96.1633 83.7266 95.9544 84.8756 97.5761 86.914L104.683 95.6927L110.326 88.9523C113.461 85.2413 113.358 83.7786 110.534 83.7786H109.021V82.7854H121.561V83.7786C118.113 83.7786 115.708 85.3982 112.678 89.1081L105.989 97.3124L115.814 109.539C118.844 113.354 119.785 113.93 123.756 114.295V115.288H109.334V114.295C112.993 114.295 113.829 113.407 111.163 110.167L103.326 100.5L95.0153 110.48ZM150.152 110.48C150.152 113.302 151.093 114.295 154.28 114.295H156.213V115.288H139.754V114.295H141.688C144.875 114.295 145.816 113.301 145.816 110.48V84.6658H136.722C134.632 84.6658 133.691 85.8678 132.908 90.466H131.967L132.804 82.001H133.797C133.849 82.3148 134.058 82.5236 134.37 82.6275C134.684 82.7324 135.05 82.7844 135.416 82.7844H160.55C161.282 82.7844 162.066 82.6275 162.17 82H163.163L164 90.465H163.059C162.274 85.8668 161.334 84.6648 159.243 84.6648H150.15V110.48H150.152Z" fill="#FF304F"/>
</g>
<defs>
<clipPath id="clip0">
<rect width="164" height="164" fill="white"/>
</clipPath>
</defs>
</svg>
