<svg width="141" height="74" viewBox="0 0 141 74" fill="none" xmlns="http://www.w3.org/2000/svg">
<g clip-path="url(#clip0)">
<path d="M70.5 73.3971C109.436 73.3971 141 56.9666 141 36.6985C141 16.4305 109.436 0 70.5 0C31.5639 0 0 16.4305 0 36.6985C0 56.9666 31.5639 73.3971 70.5 73.3971Z" fill="#FF304F"/>
<path fill-rule="evenodd" clip-rule="evenodd" d="M19.7978 58.4279L27.5242 19.3148H45.3899C53.1157 19.7978 56.9789 23.6604 56.9789 30.4213C56.9789 42.0102 47.8045 48.7705 39.5951 48.2875H30.9043L28.9727 58.4279H19.7978ZM32.8354 41.0447L35.25 26.5581H41.5272C44.9074 26.5581 47.3215 28.0067 47.3215 30.9038C46.839 39.1131 42.9758 40.5617 38.6301 41.0447H32.8359H32.8354ZM55.1839 48.2875L62.9097 9.17493H72.0846L70.153 19.3148H78.8443C86.5707 19.7978 89.4678 23.6604 88.5023 28.4897L85.1221 48.2875H75.4647L78.8449 30.4213C79.3274 28.0067 79.3274 26.5581 75.9478 26.5581H68.7044L64.3588 48.2875H55.1839ZM84.5036 58.4279L92.2294 19.3148H110.096C117.822 19.7978 121.685 23.6604 121.685 30.4213C121.685 42.0102 112.51 48.7705 104.301 48.2875H95.6096L93.678 58.4279H84.5036ZM97.5406 41.0447L99.9552 26.5581H106.233C109.613 26.5581 112.027 28.0067 112.027 30.9038C111.545 39.1131 107.682 40.5617 103.336 41.0447H97.5411H97.5406Z" fill="#010C2D"/>
</g>
<defs>
<clipPath id="clip0">
<rect width="141" height="73.8276" fill="white"/>
</clipPath>
</defs>
</svg>
