<svg width="120" height="72" viewBox="0 0 120 72" fill="none" xmlns="http://www.w3.org/2000/svg">
<g clip-path="url(#clip0)">
<path d="M11.1416 0H108.81C114.991 0 119.994 5.00344 119.994 11.1847V48.4661C119.994 54.6474 114.991 59.6508 108.81 59.6508H73.7847L78.5922 71.4238L57.4493 59.6508H11.1904C5.00957 59.6508 0.00612782 54.6474 0.00612782 48.4661V11.1847C-0.0430863 5.05265 4.95988 0 11.1416 0Z" fill="#FF304F"/>
<path d="M6.83842 10.1943C7.52132 9.26725 8.54544 8.77979 9.91125 8.6823C12.3991 8.48685 13.8137 9.65721 14.1549 12.1938C15.667 22.3882 17.3252 31.0218 19.081 38.0941L29.7628 17.7546C30.7387 15.9008 31.9582 14.9255 33.4215 14.828C35.5677 14.6817 36.8843 16.0471 37.421 18.9249C38.6406 25.4118 40.2013 30.9238 42.0546 35.6062C43.3229 23.2173 45.4691 14.2913 48.4932 8.77979C49.2244 7.41398 50.2977 6.73108 51.7123 6.63312C52.8344 6.5361 53.8585 6.87731 54.7851 7.60896C55.7118 8.34061 56.1997 9.26725 56.2972 10.3893C56.3459 11.2672 56.1997 11.9989 55.8097 12.7305C53.9072 16.2425 52.346 22.1445 51.0781 30.3384C49.859 38.289 49.4198 44.4839 49.7123 48.9226C49.8103 50.1412 49.6148 51.2145 49.1274 52.1416C48.5415 53.2145 47.6641 53.7999 46.542 53.8974C45.2737 53.9949 43.9571 53.41 42.6888 52.0929C38.1526 47.4588 34.5431 40.5327 31.9095 31.3142C28.7387 37.5574 26.3975 42.2398 24.8855 45.3613C22.0076 50.8733 19.5689 53.7024 17.5202 53.8487C16.2032 53.9462 15.0815 52.8241 14.1062 50.4834C11.6187 44.0935 8.93587 31.7529 6.05849 13.4622C5.86304 12.1938 6.15551 11.0718 6.83842 10.1943V10.1943ZM111.658 17.8521C109.902 14.7792 107.317 12.926 103.854 12.1938C102.927 11.9989 102.049 11.9014 101.22 11.9014C96.5374 11.9014 92.7329 14.34 89.7576 19.2179C87.2209 23.3636 85.9531 27.9485 85.9531 32.9725C85.9531 36.7283 86.7335 39.9473 88.2943 42.6302C90.0501 45.703 92.6354 47.5563 96.0982 48.2879C97.0249 48.4834 97.9027 48.5809 98.7324 48.5809C103.463 48.5809 107.268 46.1422 110.195 41.2644C112.731 37.0695 113.999 32.4846 113.999 27.461C114.048 23.6565 113.219 20.4857 111.658 17.8521V17.8521ZM105.512 31.363C104.829 34.5821 103.61 36.972 101.805 38.5815C100.391 39.8498 99.0736 40.386 97.8545 40.1423C96.6836 39.8986 95.7078 38.8745 94.9766 36.972C94.3907 35.4599 94.0987 33.9479 94.0987 32.5333C94.0987 31.3142 94.1962 30.0947 94.44 28.973C94.8791 26.9731 95.7083 25.0219 97.0249 23.1686C98.6349 20.7782 100.342 19.8033 102.098 20.1445C103.268 20.3882 104.244 21.4128 104.976 23.3148C105.561 24.8269 105.853 26.3389 105.853 27.7535C105.853 29.0218 105.756 30.2409 105.512 31.3625V31.363ZM81.124 17.8521C79.3683 14.7792 76.7341 12.926 73.3201 12.1938C72.3935 11.9989 71.5156 11.9014 70.686 11.9014C66.0036 11.9014 62.1991 14.34 59.2238 19.2179C56.6876 23.3636 55.4193 27.9485 55.4193 32.9725C55.4193 36.7283 56.1997 39.9473 57.7605 42.6302C59.5162 45.703 62.1016 47.5563 65.5644 48.2879C66.4915 48.4834 67.3689 48.5809 68.1985 48.5809C72.9296 48.5809 76.7341 46.1422 79.6607 41.2644C82.1974 37.0695 83.4652 32.4846 83.4652 27.461C83.4652 23.6565 82.6848 20.4857 81.124 17.8521V17.8521ZM74.9296 31.363C74.2467 34.5821 73.0271 36.972 71.2226 38.5815C69.8081 39.8498 68.491 40.386 67.2714 40.1423C66.1011 39.8986 65.1257 38.8745 64.3936 36.972C63.8086 35.4599 63.5162 33.9479 63.5162 32.5333C63.5162 31.3142 63.6137 30.0947 63.8574 28.973C64.2966 26.9731 65.1257 25.0219 66.4428 23.1686C68.0523 20.7782 69.7593 19.8033 71.5151 20.1445C72.6859 20.3882 73.6618 21.4128 74.3929 23.3148C74.9788 24.8269 75.2708 26.3389 75.2708 27.7535C75.32 29.0218 75.1733 30.2409 74.9296 31.3625V31.363Z" fill="#010C2D"/>
</g>
<defs>
<clipPath id="clip0">
<rect width="120" height="71.712" fill="white"/>
</clipPath>
</defs>
</svg>
