<svg width="28" height="28" viewBox="0 0 28 28" fill="none" xmlns="http://www.w3.org/2000/svg">
<path fill-rule="evenodd" clip-rule="evenodd" d="M14 1.80242C6.93583 1.80242 1.21683 7.49225 1.21683 14.4993C1.21683 19.6443 4.30033 24.0718 8.73833 26.0633C9.20267 26.2721 9.6565 26.1893 10.0112 25.9233C10.2073 25.7705 10.3654 25.5744 10.4731 25.3504C10.5808 25.1263 10.6351 24.8803 10.6318 24.6318V23.9668L9.04867 23.7521C9.03694 23.7505 9.02527 23.7486 9.01367 23.7463C8.141 23.5759 7.55183 23.2691 7.12017 22.8269C6.75733 22.4548 6.53567 22.0091 6.34783 21.6311L6.2825 21.4993C6.10889 21.1371 5.91932 20.7829 5.71433 20.4376C5.55683 20.1879 5.43433 20.0596 5.313 19.9791C5.005 19.7749 4.70867 19.4284 4.70867 18.9956C4.70761 18.871 4.73429 18.7478 4.78675 18.6348C4.83921 18.5218 4.91615 18.4218 5.012 18.3423C5.1929 18.199 5.41835 18.1239 5.649 18.1299C5.908 18.1299 6.15183 18.2093 6.35483 18.3003C6.5625 18.3936 6.769 18.5173 6.9615 18.6456C7.4305 18.9583 7.8925 19.3281 8.28333 19.7843C8.6905 20.2579 8.97867 20.5589 9.41267 20.6208C9.76967 20.6721 10.1337 20.6733 10.4172 20.6604C10.4566 20.436 10.5215 20.2168 10.6108 20.0071C10.2646 19.9263 9.92301 19.8266 9.58767 19.7084C8.82467 19.4378 7.97417 19.0166 7.4025 18.3784C6.77483 17.6761 6.38633 17.0496 6.16933 16.3169C5.95817 15.6029 5.92317 14.8294 5.92317 13.8774C5.92317 12.4191 6.55433 11.1906 7.028 10.5384C6.84602 9.96745 6.71522 9.38142 6.63717 8.78725C6.58547 8.41256 6.58586 8.03251 6.63833 7.65792C6.69667 7.31609 6.8425 6.89608 7.22633 6.64292C7.59617 6.39675 8.03017 6.40725 8.3685 6.47025C8.71967 6.53675 9.08483 6.68258 9.42083 6.84942C9.968 7.12008 10.5117 7.48175 10.9188 7.78859C11.6212 7.58209 12.8637 7.31608 13.9872 7.29158H14.0128C15.1375 7.31608 16.324 7.58209 17.0088 7.78742C17.4172 7.48175 17.9597 7.11892 18.5057 6.84942C18.8417 6.68258 19.2057 6.53675 19.558 6.47025C19.8963 6.40725 20.3303 6.39675 20.7013 6.64175C21.084 6.89608 21.231 7.31609 21.2882 7.65792C21.3477 8.01375 21.3337 8.41159 21.2882 8.78725C21.2105 9.38137 21.0801 9.9674 20.8985 10.5384C21.3722 11.1918 22.0033 12.4203 22.0033 13.8774C22.0033 14.8294 21.9683 15.6029 21.7583 16.3158C21.5402 17.0508 21.1517 17.6761 20.524 18.3784C19.9523 19.0166 19.1018 19.4378 18.3388 19.7084C17.9338 19.8508 17.5199 19.9665 17.0998 20.0549C17.2433 20.4889 17.2947 20.8401 17.2947 21.0419V24.6469C17.2947 25.1952 17.5502 25.6631 17.913 25.9361C18.2653 26.2033 18.718 26.2861 19.1823 26.0831C23.6623 24.1091 26.782 19.6699 26.782 14.4981C26.782 7.49225 21.0653 1.80242 14 1.80242ZM11.0553 21.8283C10.752 21.8714 11.0542 21.8283 11.0542 21.8283H11.0507L11.0413 21.8306L11.0075 21.8353C10.8342 21.8556 10.6603 21.87 10.486 21.8784C10.157 21.8936 9.7055 21.8948 9.24233 21.8283C8.3195 21.6976 7.75833 21.0443 7.3955 20.6196L7.3605 20.5799C7.24187 20.4423 7.11444 20.3125 6.979 20.1914C7.09917 20.4131 7.224 20.6604 7.35817 20.9264L7.36983 20.9498L7.42933 21.0711C7.6335 21.4771 7.76767 21.7477 7.9905 21.9741C8.2075 22.1957 8.54583 22.4104 9.2295 22.5458L11.3225 22.8293C11.4687 22.849 11.6027 22.9212 11.6997 23.0324C11.7967 23.1435 11.85 23.2861 11.8498 23.4336V24.6318C11.8498 25.5651 11.4123 26.3969 10.7415 26.9009C10.3893 27.17 9.97031 27.3379 9.52972 27.3864C9.08913 27.4349 8.64366 27.3623 8.24133 27.1763C3.38567 24.9981 0 20.1483 0 14.4993C0 6.80859 6.27317 0.583252 14 0.583252C21.7268 0.583252 28 6.80859 28 14.4993C28 20.1774 24.5712 25.0401 19.6735 27.1996C19.2708 27.3821 18.8261 27.4517 18.387 27.4009C17.9478 27.3501 17.5307 27.1809 17.1803 26.9114C16.8339 26.6447 16.5539 26.3013 16.3624 25.9082C16.1709 25.5151 16.0731 25.083 16.0767 24.6458V21.0408C16.0767 20.9591 16.0195 20.4878 15.701 19.8542C15.657 19.7664 15.6349 19.6693 15.6364 19.571C15.638 19.4728 15.6632 19.3764 15.7099 19.29C15.7566 19.2036 15.8234 19.1297 15.9047 19.0746C15.986 19.0195 16.0794 18.9848 16.177 18.9734C16.5772 18.9291 17.2515 18.7996 17.9317 18.5581C18.6247 18.3131 19.2465 17.9771 19.6163 17.5641C20.1658 16.9504 20.44 16.4791 20.5905 15.9693C20.7468 15.4408 20.7865 14.8259 20.7865 13.8774C20.7865 12.5463 20.0865 11.4274 19.7645 11.0669C19.6914 10.9854 19.6416 10.8858 19.6202 10.7785C19.5989 10.6711 19.6068 10.56 19.6432 10.4568C19.8065 9.99709 20.0048 9.28192 20.0807 8.64375C20.118 8.32292 20.1203 8.05458 20.0877 7.86092C20.0804 7.79011 20.0589 7.72148 20.0247 7.65909C19.9443 7.64518 19.862 7.64877 19.7832 7.66958C19.5848 7.70692 19.3317 7.80025 19.0447 7.94258C18.473 8.22492 17.878 8.64258 17.5093 8.94125C17.428 9.00721 17.331 9.05101 17.2278 9.06839C17.1246 9.08577 17.0186 9.07613 16.9202 9.04042C15.9756 8.73142 14.993 8.5536 14 8.51192C12.8252 8.53992 11.4695 8.87358 11.0063 9.04042C10.9079 9.07613 10.8019 9.08577 10.6987 9.06839C10.5955 9.05101 10.4985 9.00721 10.4172 8.94125C9.94039 8.55742 9.42599 8.22282 8.88183 7.94258C8.64817 7.81988 8.39952 7.72811 8.14217 7.66958C8.06373 7.64894 7.98177 7.64535 7.90183 7.65909C7.86754 7.72147 7.84612 7.7901 7.83883 7.86092C7.80617 8.05458 7.8085 8.32292 7.84583 8.64375C7.92167 9.28192 8.12117 9.99709 8.28333 10.4568C8.35683 10.6668 8.31133 10.9001 8.162 11.0669C7.84 11.4274 7.14 12.5463 7.14 13.8774C7.14 14.8248 7.17967 15.4408 7.336 15.9693C7.48767 16.4791 7.76067 16.9493 8.309 17.5641C8.68 17.9771 9.30067 18.3131 9.99483 18.5581C10.5627 18.7591 11.1506 18.8983 11.7483 18.9734C11.8713 18.9866 11.9873 19.0369 12.081 19.1177C12.1747 19.1985 12.2415 19.3058 12.2727 19.4255C12.3039 19.5452 12.2978 19.6715 12.2554 19.7877C12.213 19.9039 12.1363 20.0044 12.0353 20.0759C11.8428 20.2136 11.7157 20.4609 11.6445 20.7468C11.6078 20.8939 11.5859 21.0444 11.5792 21.1959V21.2181C11.5807 21.366 11.5284 21.5094 11.432 21.6217C11.3356 21.7339 11.2018 21.8073 11.0553 21.8283Z" fill="#FF304F"/>
</svg>
