<svg width="70" height="70" viewBox="0 0 70 70" fill="none" xmlns="http://www.w3.org/2000/svg">
<g clip-path="url(#clip0)">
<path d="M51.9509 65.636C51.6906 65.7738 51.7125 65.8176 51.9619 65.6907C52.0428 65.6579 52.1106 65.6119 52.1697 65.5573C52.1697 65.5113 52.1697 65.5113 51.9509 65.636ZM52.4759 65.3516C52.3512 65.4544 52.3512 65.4544 52.5 65.3866C52.5788 65.3407 52.6488 65.2969 52.6488 65.2838C52.6488 65.2248 52.6138 65.2379 52.4759 65.3516ZM52.8172 65.146C52.6925 65.2488 52.6925 65.2488 52.8413 65.181C52.9222 65.1351 52.99 65.0869 52.99 65.076C52.99 65.0213 52.955 65.0323 52.8172 65.146ZM53.1628 64.9426C53.0381 65.0454 53.0381 65.0454 53.1825 64.9754C53.2634 64.9316 53.3312 64.8857 53.3312 64.8726C53.3312 64.8179 53.2962 64.8288 53.1628 64.9426ZM53.6287 64.6341C53.3903 64.7938 53.3072 64.8966 53.5259 64.7829C53.6725 64.6932 53.9219 64.4963 53.8781 64.4963C53.7841 64.5313 53.7053 64.5904 53.6266 64.6341H53.6287ZM32.7097 0.0241348C32.55 0.0350723 32.0709 0.0788223 31.6509 0.113822C21.7022 1.01507 12.3944 6.37007 6.49469 14.6191C3.23313 19.1407 1.11563 24.3929 0.317187 29.9076C0.035 31.8326 0 32.4013 0 35.011C0 37.6185 0.035 38.1785 0.317187 40.1035C2.2225 53.2526 11.5763 64.2907 24.255 68.3813C26.5366 69.1098 28.9275 69.6129 31.6509 69.9213C32.7097 70.0351 37.2881 70.0351 38.3469 69.9213C43.0544 69.3963 47.0291 68.2348 50.9622 66.2288C51.5659 65.9226 51.6797 65.8416 51.5987 65.7738C49.6737 63.2341 47.7837 60.6923 45.8916 58.1285L40.2981 50.5751L33.2916 40.1954C30.9553 36.7216 28.6103 33.2566 26.2281 29.8179C26.2041 29.8179 26.1734 34.4313 26.1603 40.0576C26.1362 49.9123 26.1362 50.3126 26.0116 50.5401C25.8869 50.8135 25.6812 51.041 25.4078 51.1679C25.1912 51.2707 24.9966 51.2926 23.9619 51.2926H22.7784L22.47 51.1001C22.2775 50.9754 22.1178 50.8026 22.015 50.5991L21.8663 50.2907L21.8772 36.5729L21.9013 22.8551L22.1178 22.5816C22.2556 22.4132 22.4263 22.2754 22.6187 22.1726C22.9053 22.0348 23.0191 22.0129 24.2025 22.0129C25.5916 22.0129 25.8212 22.0676 26.1866 22.4679C29.0216 26.6941 31.8478 30.9313 34.6281 35.1816C39.1759 42.0766 45.3841 51.4851 48.4356 56.1007L53.9853 64.4985L54.2588 64.3169C56.9253 62.5385 59.3512 60.421 61.4447 58.006C65.8547 52.9573 68.7159 46.7469 69.685 40.1188C69.9672 38.1938 70.0022 37.6229 70.0022 35.0154C70.0022 32.4057 69.9672 31.8479 69.685 29.9229C67.7797 16.7738 58.4259 5.7357 45.7472 1.64288C43.3759 0.892572 40.9369 0.380697 38.4672 0.118197C37.8044 0.0503848 33.2806 -0.0305527 32.7119 0.0285098L32.7097 0.0241348ZM47.0312 21.1926C47.3616 21.3501 47.6109 21.6476 47.7247 21.9888C47.7837 22.1726 47.7947 25.9766 47.7837 34.5451L47.7597 46.8476L45.5962 43.5226L43.4197 40.1954V31.2638C43.4197 25.4735 43.4438 22.2273 43.4744 22.0676C43.5772 21.7023 43.8266 21.396 44.1591 21.2035C44.4303 21.0657 44.5353 21.0548 45.6181 21.0548C46.6309 21.0548 46.8016 21.0657 47.0291 21.1926H47.0312Z" fill="#010C2D"/>
</g>
<defs>
<clipPath id="clip0">
<rect width="70" height="70" fill="white"/>
</clipPath>
</defs>
</svg>
