<svg width="31" height="31" viewBox="0 0 31 31" fill="none" xmlns="http://www.w3.org/2000/svg">
<path d="M13.95 0C10.2502 0 6.70199 1.46973 4.08586 4.08586C1.46973 6.70199 0 10.2502 0 13.95C0 17.6498 1.46973 21.198 4.08586 23.8141C6.70199 26.4303 10.2502 27.9 13.95 27.9C17.6498 27.9 21.198 26.4303 23.8141 23.8141C26.4303 21.198 27.9 17.6498 27.9 13.95C27.9 10.2502 26.4303 6.70199 23.8141 4.08586C21.198 1.46973 17.6498 0 13.95 0V0ZM25.575 10.044C25.365 10.7314 25.0158 11.3682 24.5492 11.9148C24.0825 12.4615 23.5084 12.9062 22.8625 13.2215C22.5184 11.9296 21.8825 10.7338 21.0038 9.72613C20.1252 8.71846 19.0271 7.92576 17.794 7.409C17.9947 6.72126 18.4274 6.12425 19.0185 5.7195C18.352 5.2855 17.4685 5.0685 16.9415 5.828C16.12 6.8975 16.9415 8.3235 17.267 8.928V9.145C16.4064 8.623 15.7335 7.84155 15.345 6.913C13.8473 6.8649 12.3659 7.23526 11.067 7.9825C10.9322 7.10737 11.0174 6.21244 11.315 5.3785C11.8747 5.43193 12.439 5.34675 12.958 5.1305C13.477 4.91424 13.9348 4.57355 14.291 4.1385C15.004 3.3325 14.0895 2.3095 13.3765 1.6895H13.9345C16.0446 1.67527 18.1223 2.20937 19.964 3.2395C21.005 4.00884 21.861 5.00088 22.4697 6.14322C23.0785 7.28556 23.4245 8.5494 23.4825 9.8425C23.8545 9.8425 24.5675 8.99 24.893 8.4165C25.1596 8.94195 25.3874 9.486 25.575 10.044ZM13.95 26.102C10.7725 22.878 14.3375 20.2895 12.4 17.98C10.974 16.6625 8.8505 17.577 7.5795 16.0735C7.36494 14.9526 7.4577 13.7946 7.84792 12.7222C8.23814 11.6497 8.91129 10.7029 9.796 9.982C10.602 9.3 15.996 8.432 18.197 10.323C19.4843 11.4318 20.39 12.9177 20.7855 14.57C21.4968 14.6237 22.2082 14.4674 22.8315 14.1205C23.467 18.7395 17.949 24.5675 13.95 26.102ZM7.9825 3.2395C8.57488 3.01365 9.22563 2.99161 9.83193 3.17687C10.4382 3.36213 10.9655 3.74412 11.3305 4.2625C10.6795 4.8515 9.8735 5.239 9.0055 5.3785C9.03755 4.9221 9.13679 4.47292 9.3 4.0455L7.9825 3.2395Z" fill="#FF304F"/>
</svg>
