<svg width="80" height="48" viewBox="0 0 80 48" fill="none" xmlns="http://www.w3.org/2000/svg">
<g clip-path="url(#clip0)">
<path d="M7.42777 0H72.5398C76.6607 0 79.9963 3.33562 79.9963 7.45649V32.3107C79.9963 36.4316 76.6607 39.7672 72.5398 39.7672H49.1898L52.3948 47.6158L38.2996 39.7672H7.46026C3.33971 39.7672 0.00408522 36.4316 0.00408522 32.3107V7.45649C-0.0287242 3.36843 3.30659 0 7.42777 0Z" fill="#010C2D"/>
<path d="M4.55893 6.79619C5.0142 6.17812 5.69695 5.85315 6.60749 5.78816C8.26608 5.65786 9.20912 6.4381 9.43659 8.12919C10.4446 14.9254 11.5501 20.6811 12.7207 25.396L19.8419 11.8363C20.4924 10.6005 21.3055 9.95027 22.281 9.88527C23.7118 9.78778 24.5895 10.698 24.9473 12.6166C25.7604 16.9412 26.8009 20.6158 28.0364 23.7374C28.8819 15.4782 30.3127 9.52749 32.3288 5.85315C32.8162 4.94261 33.5318 4.48734 34.4748 4.42204C35.2229 4.35736 35.9056 4.58484 36.5234 5.0726C37.1411 5.56037 37.4664 6.17812 37.5314 6.92618C37.5639 7.51143 37.4664 7.9992 37.2065 8.48697C35.9381 10.8283 34.8973 14.7629 34.0521 20.2255C33.2393 25.526 32.9465 29.6559 33.1415 32.615C33.2068 33.4274 33.0765 34.143 32.7516 34.7611C32.361 35.4763 31.776 35.8666 31.028 35.9316C30.1824 35.9966 29.3047 35.6066 28.4592 34.7286C25.4351 31.6392 23.0287 27.0218 21.273 20.8761C19.1591 25.0382 17.5983 28.1598 16.5903 30.2409C14.6717 33.9155 13.0459 35.8016 11.6801 35.8991C10.8021 35.9641 10.0543 35.216 9.4041 33.6555C7.74582 29.3956 5.95724 21.1686 4.03898 8.97473C3.90868 8.12919 4.10366 7.38113 4.55893 6.79619ZM74.4385 11.9013C73.268 9.85278 71.5444 8.61727 69.2359 8.12919C68.6178 7.9992 68.0329 7.93421 67.4798 7.93421C64.3582 7.93421 61.8219 9.55999 59.8384 12.8119C58.1473 15.5757 57.302 18.6323 57.302 21.9816C57.302 24.4855 57.8223 26.6315 58.8628 28.4201C60.0333 30.4686 61.7569 31.7042 64.0655 32.1919C64.6832 32.3222 65.2685 32.3872 65.8215 32.3872C68.9756 32.3872 71.5119 30.7614 73.463 27.5096C75.1538 24.7129 75.9993 21.6564 75.9993 18.3073C76.0318 15.771 75.4791 13.6571 74.4385 11.9013ZM70.3414 20.9086C69.8862 23.0547 69.0731 24.6479 67.8698 25.721C66.9271 26.5665 66.049 26.924 65.2363 26.7615C64.4557 26.599 63.8052 25.9163 63.3177 24.6479C62.9271 23.6399 62.7325 22.6319 62.7325 21.6889C62.7325 20.8761 62.7975 20.0631 62.9599 19.3153C63.2527 17.982 63.8055 16.6812 64.6832 15.4457C65.7565 13.8521 66.8946 13.2021 68.0651 13.4296C68.8456 13.5921 69.4962 14.2752 69.9837 15.5432C70.3739 16.5512 70.5689 17.5592 70.5689 18.5023C70.5689 19.3478 70.5039 20.1606 70.3414 20.9083V20.9086ZM54.0827 11.9013C52.9121 9.85278 51.1561 8.61727 48.88 8.12919C48.2623 7.9992 47.677 7.93421 47.1239 7.93421C44.0024 7.93421 41.466 9.55999 39.4825 12.8119C37.7917 15.5757 36.9462 18.6323 36.9462 21.9816C36.9462 24.4855 37.4664 26.6315 38.507 28.4201C39.6775 30.4686 41.4011 31.7042 43.7096 32.1919C44.3277 32.3222 44.9126 32.3872 45.4657 32.3872C48.6197 32.3872 51.1561 30.7614 53.1071 27.5096C54.7982 24.7129 55.6434 21.6564 55.6434 18.3073C55.6434 15.771 55.1232 13.6571 54.0827 11.9013ZM49.9531 20.9086C49.4978 23.0547 48.6847 24.6479 47.4817 25.721C46.5387 26.5665 45.6607 26.924 44.8476 26.7615C44.0674 26.599 43.4171 25.9163 42.929 24.6479C42.5391 23.6399 42.3441 22.6319 42.3441 21.6889C42.3441 20.8761 42.4091 20.0631 42.5716 19.3153C42.8644 17.982 43.4171 16.6812 44.2952 15.4457C45.3682 13.8521 46.5062 13.2021 47.6767 13.4296C48.4573 13.5921 49.1078 14.2752 49.5953 15.5432C49.9859 16.5512 50.1805 17.5592 50.1805 18.5023C50.2133 19.3478 50.1155 20.1606 49.9531 20.9083V20.9086Z" fill="white"/>
</g>
<defs>
<clipPath id="clip0">
<rect width="80" height="47.808" fill="white"/>
</clipPath>
</defs>
</svg>
