<svg width="64" height="64" viewBox="0 0 64 64" fill="none" xmlns="http://www.w3.org/2000/svg">
<path d="M4.0527 33.1384C4.0527 44.1361 10.4456 53.6503 19.7194 58.1501L6.46062 21.8236C4.9163 25.2825 4.0527 29.1061 4.0527 33.1384ZM50.6148 31.7341C50.6148 28.2989 49.3775 25.9181 48.322 24.0678C46.9132 21.7762 45.5946 19.8402 45.5946 17.5474C45.5946 14.9916 47.5261 12.6153 50.2626 12.6153C50.3811 12.6153 50.5008 12.6311 50.6193 12.639C45.6759 8.10876 39.0877 5.3396 31.8516 5.3396C22.1375 5.3396 13.5952 10.3248 8.62695 17.8702C9.28058 17.8906 9.89244 17.9052 10.414 17.9052C13.3231 17.9052 17.8229 17.5485 17.8229 17.5485C19.3175 17.465 19.4948 19.6607 17.9967 19.8413C17.9967 19.8413 16.493 20.0151 14.8166 20.1054L24.9405 50.2106L31.0241 31.97L26.6914 20.1054C25.1945 20.0151 23.7766 19.8413 23.7766 19.8413C22.2775 19.751 22.4558 17.465 23.955 17.5485C23.955 17.5485 28.5428 17.9052 31.2724 17.9052C34.1782 17.9052 38.6847 17.5485 38.6847 17.5485C40.1771 17.465 40.3555 19.6607 38.8563 19.8413C38.8563 19.8413 37.3549 20.0151 35.6773 20.1054L45.7244 49.9814L48.4981 40.7212C49.907 37.1076 50.6148 34.1161 50.6148 31.7341ZM32.3381 35.5712L23.9968 59.8073C26.486 60.5388 29.1163 60.9362 31.8504 60.9362C35.0847 60.9362 38.1914 60.3762 41.0802 59.358C41.0057 59.2394 40.9368 59.1153 40.8815 58.9787L32.3381 35.5712ZM56.2389 19.7995C56.3619 20.6879 56.4308 21.6362 56.4308 22.6612C56.4308 25.4801 55.9014 28.65 54.3141 32.6169L45.8249 57.1612C54.0861 52.3453 59.6425 43.3944 59.6425 33.1396C59.6436 28.3034 58.4086 23.7619 56.2389 19.7995Z" fill="#010C2D"/>
</svg>
