<svg width="120" height="120" viewBox="0 0 120 120" fill="none" xmlns="http://www.w3.org/2000/svg">
<path d="M0 104.527C0 113.073 6.92766 120 15.473 120H104.527C113.073 120 120 113.072 120 104.527V15.4734C120 6.92672 113.072 0 104.527 0H15.4734C6.92672 0 0 6.92766 0 15.473V104.527V104.527Z" fill="#FF304F"/>
<path d="M49.7616 53.0803V36.0867H64.7199C66.1449 36.0867 67.5183 36.2053 68.8412 36.443C70.164 36.6802 71.3344 37.1039 72.3521 37.7147C73.3693 38.3255 74.1835 39.1734 74.7943 40.2586C75.4046 41.3442 75.7102 42.735 75.7102 44.4305C75.7102 47.4834 74.7943 49.6884 72.9624 51.045C71.131 52.402 68.7905 53.0803 65.941 53.0803H49.7616ZM33.7852 23.6719V96.3281H68.994C72.2504 96.3281 75.422 95.9212 78.5087 95.107C81.5954 94.2928 84.3428 93.038 86.7512 91.342C89.1592 89.6461 91.0759 87.458 92.5004 84.7786C93.9254 82.0987 94.6375 78.9272 94.6375 75.2639C94.6375 70.7184 93.535 66.8348 91.3304 63.6127C89.1254 60.39 85.7842 58.1344 81.3067 56.8453C84.5631 55.2853 87.0226 53.2837 88.6848 50.8416C90.3465 48.3994 91.1776 45.3469 91.1776 41.6831C91.1776 38.2913 90.6179 35.4422 89.4985 33.1355C88.3792 30.8292 86.8018 28.9805 84.7665 27.5897C82.7317 26.1989 80.2895 25.1981 77.4399 24.5878C74.5909 23.977 71.4362 23.6719 67.9763 23.6719H33.7852ZM49.7616 83.9133V63.9684H67.1621C70.622 63.9684 73.4035 64.7653 75.5068 66.36C77.6096 67.9542 78.6615 70.6167 78.6615 74.348C78.6615 76.2478 78.339 77.8078 77.6945 79.0289C77.0499 80.25 76.1851 81.217 75.0995 81.9291C74.0143 82.6416 72.759 83.1502 71.3344 83.4558C69.9094 83.7605 68.4174 83.9133 66.8569 83.9133H49.7616Z" fill="#010C2D"/>
</svg>
