<svg width="120" height="150" viewBox="0 0 120 150" fill="none" xmlns="http://www.w3.org/2000/svg">
<path d="M13.1616 22.5C9.80713 22.5 7.13552 25.4795 7.54029 28.8098L17.7905 113.643C18.2449 117.397 20.9287 120.52 24.5764 121.556L57.4548 130.891C59.1106 131.361 60.8663 131.372 62.5305 130.92L97.1082 121.553C100.874 120.533 103.637 117.296 104.026 113.423L112.555 28.6963C112.887 25.4017 110.234 22.5 106.923 22.5H13.1616ZM13.1616 26.25H106.923C108.092 26.25 108.938 27.1886 108.823 28.3228L108.552 31.0144C108.395 30.6978 108.151 30.4321 107.849 30.2481C107.547 30.0641 107.199 29.9692 106.846 29.9744C106.349 29.9821 105.876 30.1866 105.53 30.5429C105.184 30.8993 104.993 31.3783 105 31.875V35.625C104.996 35.9679 105.085 36.3055 105.259 36.601C105.433 36.8965 105.685 37.1386 105.987 37.3009C106.289 37.4633 106.63 37.5397 106.973 37.5219C107.315 37.504 107.646 37.3926 107.93 37.1997L100.294 113.046C100.294 113.047 100.294 113.048 100.294 113.049C100.06 115.379 98.417 117.315 96.1304 117.935C96.1292 117.935 96.1279 117.935 96.1267 117.935L61.5491 127.302C60.5433 127.575 59.4832 127.568 58.4802 127.284L25.6018 117.949C23.3882 117.32 21.788 115.449 21.5149 113.192L12.3523 37.3572C12.6397 37.4872 12.9553 37.5425 13.2698 37.5182C13.5843 37.4938 13.8876 37.3905 14.1516 37.2178C14.4155 37.0451 14.6317 36.8086 14.78 36.5302C14.9283 36.2518 15.004 35.9404 15 35.625V31.875C15.0034 31.6241 14.9565 31.3752 14.862 31.1428C14.7674 30.9104 14.6272 30.6993 14.4497 30.5221C14.2721 30.3449 14.0608 30.2051 13.8282 30.111C13.5956 30.0169 13.3466 29.9704 13.0957 29.9744C12.7907 29.9794 12.4916 30.0587 12.2242 30.2055C11.9568 30.3523 11.7293 30.562 11.5613 30.8167L11.2647 28.3594C11.2647 28.3582 11.2647 28.3569 11.2647 28.3557C11.1257 27.2122 11.9786 26.25 13.1616 26.25ZM22.4707 29.9744C21.9741 29.9821 21.5008 30.1866 21.1548 30.5429C20.8087 30.8993 20.6182 31.3783 20.625 31.875V35.625C20.6215 35.8735 20.6674 36.1201 20.76 36.3507C20.8527 36.5813 20.9902 36.7911 21.1647 36.9681C21.3392 37.145 21.547 37.2855 21.7763 37.3814C22.0055 37.4773 22.2515 37.5267 22.5 37.5267C22.7485 37.5267 22.9945 37.4773 23.2237 37.3814C23.453 37.2855 23.6608 37.145 23.8353 36.9681C24.0098 36.7911 24.1473 36.5813 24.24 36.3507C24.3326 36.1201 24.3785 35.8735 24.375 35.625V31.875C24.3784 31.6241 24.3315 31.3752 24.237 31.1428C24.1424 30.9104 24.0022 30.6993 23.8247 30.5221C23.6471 30.3449 23.4358 30.2051 23.2032 30.111C22.9706 30.0169 22.7216 29.9704 22.4707 29.9744ZM31.8457 29.9744C31.3491 29.9821 30.8758 30.1866 30.5298 30.5429C30.1837 30.8993 29.9932 31.3783 30 31.875V35.625C29.9965 35.8735 30.0424 36.1201 30.135 36.3507C30.2277 36.5813 30.3652 36.7911 30.5397 36.9681C30.7142 37.145 30.922 37.2855 31.1513 37.3814C31.3805 37.4773 31.6265 37.5267 31.875 37.5267C32.1235 37.5267 32.3695 37.4773 32.5987 37.3814C32.828 37.2855 33.0358 37.145 33.2103 36.9681C33.3848 36.7911 33.5223 36.5813 33.615 36.3507C33.7076 36.1201 33.7535 35.8735 33.75 35.625V31.875C33.7534 31.6241 33.7065 31.3752 33.612 31.1428C33.5174 30.9104 33.3772 30.6993 33.1997 30.5221C33.0221 30.3449 32.8108 30.2051 32.5782 30.111C32.3456 30.0169 32.0966 29.9704 31.8457 29.9744ZM41.2207 29.9744C40.7241 29.9821 40.2508 30.1866 39.9048 30.5429C39.5587 30.8993 39.3682 31.3783 39.375 31.875V35.625C39.3715 35.8735 39.4174 36.1201 39.51 36.3507C39.6027 36.5813 39.7402 36.7911 39.9147 36.9681C40.0892 37.145 40.297 37.2855 40.5263 37.3814C40.7555 37.4773 41.0015 37.5267 41.25 37.5267C41.4985 37.5267 41.7445 37.4773 41.9737 37.3814C42.203 37.2855 42.4108 37.145 42.5853 36.9681C42.7598 36.7911 42.8973 36.5813 42.99 36.3507C43.0826 36.1201 43.1285 35.8735 43.125 35.625V31.875C43.1284 31.6241 43.0815 31.3752 42.987 31.1428C42.8924 30.9104 42.7522 30.6993 42.5747 30.5221C42.3971 30.3449 42.1858 30.2051 41.9532 30.111C41.7206 30.0169 41.4716 29.9704 41.2207 29.9744ZM50.5957 29.9744C50.0991 29.9821 49.6258 30.1866 49.2798 30.5429C48.9337 30.8993 48.7432 31.3783 48.75 31.875V35.625C48.7465 35.8735 48.7924 36.1201 48.885 36.3507C48.9777 36.5813 49.1152 36.7911 49.2897 36.9681C49.4642 37.145 49.672 37.2855 49.9013 37.3814C50.1305 37.4773 50.3765 37.5267 50.625 37.5267C50.8735 37.5267 51.1195 37.4773 51.3487 37.3814C51.578 37.2855 51.7858 37.145 51.9603 36.9681C52.1348 36.7911 52.2723 36.5813 52.365 36.3507C52.4576 36.1201 52.5035 35.8735 52.5 35.625V31.875C52.5034 31.6241 52.4565 31.3752 52.362 31.1428C52.2674 30.9104 52.1272 30.6993 51.9497 30.5221C51.7721 30.3449 51.5608 30.2051 51.3282 30.111C51.0956 30.0169 50.8466 29.9704 50.5957 29.9744ZM59.9707 29.9744C59.4741 29.9821 59.0008 30.1866 58.6548 30.5429C58.3087 30.8993 58.1182 31.3783 58.125 31.875V35.625C58.1215 35.8735 58.1674 36.1201 58.26 36.3507C58.3527 36.5813 58.4902 36.7911 58.6647 36.9681C58.8392 37.145 59.047 37.2855 59.2763 37.3814C59.5055 37.4773 59.7515 37.5267 60 37.5267C60.2485 37.5267 60.4945 37.4773 60.7237 37.3814C60.953 37.2855 61.1608 37.145 61.3353 36.9681C61.5098 36.7911 61.6473 36.5813 61.74 36.3507C61.8326 36.1201 61.8785 35.8735 61.875 35.625V31.875C61.8784 31.6241 61.8315 31.3752 61.737 31.1428C61.6424 30.9104 61.5022 30.6993 61.3247 30.5221C61.1471 30.3449 60.9358 30.2051 60.7032 30.111C60.4706 30.0169 60.2216 29.9704 59.9707 29.9744ZM69.3457 29.9744C68.8491 29.9821 68.3758 30.1866 68.0298 30.5429C67.6837 30.8993 67.4932 31.3783 67.5 31.875V35.625C67.4965 35.8735 67.5424 36.1201 67.635 36.3507C67.7277 36.5813 67.8652 36.7911 68.0397 36.9681C68.2142 37.145 68.422 37.2855 68.6513 37.3814C68.8805 37.4773 69.1265 37.5267 69.375 37.5267C69.6235 37.5267 69.8695 37.4773 70.0987 37.3814C70.328 37.2855 70.5358 37.145 70.7103 36.9681C70.8848 36.7911 71.0223 36.5813 71.115 36.3507C71.2076 36.1201 71.2535 35.8735 71.25 35.625V31.875C71.2534 31.6241 71.2065 31.3752 71.112 31.1428C71.0174 30.9104 70.8772 30.6993 70.6997 30.5221C70.5221 30.3449 70.3108 30.2051 70.0782 30.111C69.8456 30.0169 69.5965 29.9704 69.3457 29.9744ZM78.7207 29.9744C78.2241 29.9821 77.7508 30.1866 77.4048 30.5429C77.0587 30.8993 76.8682 31.3783 76.875 31.875V35.625C76.8715 35.8735 76.9174 36.1201 77.01 36.3507C77.1027 36.5813 77.2402 36.7911 77.4147 36.9681C77.5892 37.145 77.797 37.2855 78.0263 37.3814C78.2555 37.4773 78.5015 37.5267 78.75 37.5267C78.9985 37.5267 79.2445 37.4773 79.4737 37.3814C79.703 37.2855 79.9108 37.145 80.0853 36.9681C80.2598 36.7911 80.3973 36.5813 80.49 36.3507C80.5826 36.1201 80.6285 35.8735 80.625 35.625V31.875C80.6284 31.6241 80.5815 31.3752 80.487 31.1428C80.3924 30.9104 80.2522 30.6993 80.0747 30.5221C79.8971 30.3449 79.6858 30.2051 79.4532 30.111C79.2206 30.0169 78.9715 29.9704 78.7207 29.9744ZM88.0957 29.9744C87.5991 29.9821 87.1258 30.1866 86.7798 30.5429C86.4337 30.8993 86.2432 31.3783 86.25 31.875V35.625C86.2465 35.8735 86.2924 36.1201 86.385 36.3507C86.4777 36.5813 86.6152 36.7911 86.7897 36.9681C86.9642 37.145 87.172 37.2855 87.4013 37.3814C87.6305 37.4773 87.8765 37.5267 88.125 37.5267C88.3735 37.5267 88.6195 37.4773 88.8487 37.3814C89.078 37.2855 89.2858 37.145 89.4603 36.9681C89.6348 36.7911 89.7723 36.5813 89.865 36.3507C89.9576 36.1201 90.0035 35.8735 90 35.625V31.875C90.0034 31.6241 89.9565 31.3752 89.862 31.1428C89.7674 30.9104 89.6272 30.6993 89.4497 30.5221C89.2721 30.3449 89.0608 30.2051 88.8282 30.111C88.5956 30.0169 88.3465 29.9704 88.0957 29.9744ZM97.4707 29.9744C96.9741 29.9821 96.5008 30.1866 96.1548 30.5429C95.8087 30.8993 95.6182 31.3783 95.625 31.875V35.625C95.6215 35.8735 95.6674 36.1201 95.76 36.3507C95.8527 36.5813 95.9902 36.7911 96.1647 36.9681C96.3392 37.145 96.547 37.2855 96.7763 37.3814C97.0055 37.4773 97.2515 37.5267 97.5 37.5267C97.7485 37.5267 97.9945 37.4773 98.2237 37.3814C98.453 37.2855 98.6608 37.145 98.8353 36.9681C99.0098 36.7911 99.1473 36.5813 99.24 36.3507C99.3326 36.1201 99.3785 35.8735 99.375 35.625V31.875C99.3784 31.6241 99.3315 31.3752 99.237 31.1428C99.1424 30.9104 99.0022 30.6993 98.8247 30.5221C98.6471 30.3449 98.4358 30.2051 98.2032 30.111C97.9706 30.0169 97.7215 29.9704 97.4707 29.9744ZM31.875 45C29.6081 45 27.8182 47.0915 28.1726 49.3323L29.6045 58.418C29.6742 58.8585 29.8987 59.2598 30.2377 59.5498C30.5766 59.8397 31.0078 59.9993 31.4539 60H75.4651L74.5789 67.5H46.875C46.3777 67.5 45.9009 67.6976 45.5492 68.0492C45.1976 68.4009 45.0001 68.8777 45 69.375V80.625C45.0001 81.1223 45.1976 81.5991 45.5492 81.9508C45.9009 82.3024 46.3777 82.5 46.875 82.5H72.8064L71.51 93.4863L60.2051 96.9324L50.3247 93.5852L49.6692 89.4177C49.6692 89.4165 49.6692 89.4153 49.6692 89.4141C49.3826 87.6051 47.7989 86.25 45.9668 86.25H38.3752C36.1063 86.25 34.3186 88.3421 34.6692 90.5823C34.6692 90.5835 34.6692 90.5847 34.6692 90.5859L36.5698 102.656C36.7843 104.018 37.7449 105.162 39.0564 105.604L58.8428 112.306C58.844 112.306 58.8452 112.306 58.8464 112.306C59.2255 112.433 59.6264 112.5 60.0256 112.5C60.388 112.5 60.7487 112.445 61.0986 112.339L82.9321 105.688C84.3416 105.259 85.373 104.025 85.5432 102.557L90.9631 56.6931L91.853 49.1565C92.1102 46.9763 90.3532 45 88.158 45H31.875ZM31.875 48.75H88.125L87.2388 56.25L81.8225 102.103L60.0256 108.746L40.2722 102.056L38.3752 90.0037V90H45.9668L46.7981 95.2881C46.8517 95.626 46.9967 95.9429 47.2175 96.2043C47.4382 96.4658 47.7263 96.6618 48.0505 96.7712L59.5752 100.675C59.946 100.801 60.3468 100.807 60.7214 100.693L73.7732 96.7163C74.1223 96.6105 74.4329 96.4052 74.6671 96.1255C74.9013 95.8458 75.0488 95.5039 75.0916 95.1416L76.7798 80.8447C76.8108 80.5816 76.7857 80.3149 76.7062 80.0622C76.6266 79.8095 76.4945 79.5765 76.3184 79.3786C76.1422 79.1807 75.9262 79.0224 75.6844 78.914C75.4427 78.8057 75.1807 78.7498 74.9158 78.75H48.75V71.25H76.2451C76.7047 71.2504 77.1484 71.0821 77.492 70.777C77.8356 70.4718 78.0552 70.0511 78.1091 69.5947L79.4385 58.3447C79.4695 58.0816 79.4444 57.8149 79.3649 57.5622C79.2853 57.3095 79.1532 57.0765 78.977 56.8786C78.8009 56.6807 78.5849 56.5224 78.3431 56.414C78.1014 56.3057 77.8394 56.2498 77.5745 56.25H33.0579L31.875 48.75ZM78.761 112.987C78.5912 112.989 78.4224 113.013 78.2593 113.06L74.5093 114.075C74.2656 114.134 74.0362 114.241 73.8347 114.39C73.6331 114.539 73.4635 114.727 73.3358 114.942C73.2081 115.158 73.125 115.397 73.0913 115.645C73.0576 115.894 73.074 116.146 73.1397 116.388C73.2053 116.63 73.3187 116.857 73.4733 117.054C73.6279 117.251 73.8205 117.416 74.0397 117.537C74.2589 117.659 74.5002 117.735 74.7494 117.762C74.9987 117.789 75.2507 117.765 75.4907 117.693L79.2407 116.678C79.6841 116.565 80.0705 116.293 80.3272 115.913C80.5838 115.534 80.6929 115.074 80.6339 114.621C80.5749 114.167 80.3519 113.75 80.0069 113.449C79.6619 113.148 79.2188 112.984 78.761 112.987ZM50.5811 115.375C50.129 115.381 49.6944 115.55 49.3571 115.851C49.0199 116.152 48.8028 116.565 48.7457 117.013C48.6886 117.462 48.7955 117.916 49.0466 118.291C49.2977 118.667 49.6762 118.94 50.1123 119.059L60.0439 121.879L67.9907 119.725C68.2344 119.666 68.4638 119.559 68.6653 119.41C68.8669 119.261 69.0365 119.073 69.1642 118.858C69.2919 118.642 69.375 118.403 69.4087 118.155C69.4424 117.906 69.4259 117.654 69.3603 117.412C69.2947 117.17 69.1812 116.943 69.0266 116.746C68.8721 116.549 68.6795 116.384 68.4603 116.263C68.2411 116.141 67.9998 116.065 67.7506 116.038C67.5013 116.011 67.2493 116.035 67.0093 116.107L60.0696 117.99L51.1377 115.452C50.9571 115.398 50.7694 115.372 50.5811 115.375Z" fill="#FF304F"/>
</svg>
