<?xml version="1.0"?>
<svg xmlns="http://www.w3.org/2000/svg" viewBox="0 0 50 50">
    <path style="text-indent:0;text-align:start;line-height:normal;text-transform:none;block-progression:tb;-inkscape-font-specification:Sans" d="M 25 2 C 12.309296 2 2 12.309296 2 25 C 2 37.690704 12.309296 48 25 48 C 37.690704 48 48 37.690704 48 25 C 48 12.309296 37.690704 2 25 2 z M 25 4 C 36.609824 4 46 13.390176 46 25 C 46 36.609824 36.609824 46 25 46 C 13.390176 46 4 36.609824 4 25 C 4 13.390176 13.390176 4 25 4 z M 25 7 C 22.802666 7 21 8.8026661 21 11 C 21 13.197334 22.802666 15 25 15 C 27.197334 15 29 13.197334 29 11 C 29 8.8026661 27.197334 7 25 7 z M 25 9 C 26.116666 9 27 9.8833339 27 11 C 27 12.116666 26.116666 13 25 13 C 23.883334 13 23 12.116666 23 11 C 23 9.8833339 23.883334 9 25 9 z M 12.8125 14.4375 C 11.796527 14.515037 10.868578 15.175516 10.53125 16.1875 C 10.087519 17.518694 10.804276 18.997869 12.125 19.46875 L 20 22.28125 L 20 28.875 L 17.5 38.90625 C 17.112485 40.459595 18.304925 42 19.90625 42 C 20.978123 42 21.943541 41.299369 22.28125 40.28125 L 25 32.125 L 27.71875 40.28125 C 28.056459 41.299369 29.021877 42 30.09375 42 C 31.695075 42 32.887515 40.459595 32.5 38.90625 L 30 28.875 L 30 22.28125 L 37.875 19.46875 C 39.195724 18.997869 39.912481 17.518694 39.46875 16.1875 C 39.018979 14.838188 37.505562 14.112729 36.15625 14.5625 L 28.875 17 L 25.15625 17 L 25 17 L 24.90625 17 L 21.125 17 L 13.84375 14.5625 C 13.506422 14.450057 13.151158 14.411654 12.8125 14.4375 z M 12.9375 16.4375 C 13.014577 16.432783 13.106328 16.441693 13.1875 16.46875 L 20.6875 18.9375 L 20.84375 19 L 21 19 L 24.84375 19 L 25 19 L 25.09375 19 L 29 19 L 29.15625 19 L 29.3125 18.9375 L 36.8125 16.46875 C 37.137188 16.360521 37.454271 16.51906 37.5625 16.84375 C 37.668769 17.162556 37.50478 17.480631 37.1875 17.59375 L 28.65625 20.625 L 28 20.84375 L 28 21.5625 L 28 29 L 28 29.125 L 28.03125 29.25 L 30.5625 39.375 C 30.646985 39.713655 30.442425 40 30.09375 40 C 29.875623 40 29.662041 39.862131 29.59375 39.65625 L 26.03125 29.03125 A 1.0001 1.0001 0 0 0 26.03125 28.9375 A 1.0001 1.0001 0 0 0 25.1875 27.875 A 1.0001 1.0001 0 0 0 25.15625 27.875 A 1.0001 1.0001 0 0 0 25 27.84375 A 1.0001 1.0001 0 0 0 24.96875 27.84375 A 1.0001 1.0001 0 0 0 24.8125 27.875 A 1.0001 1.0001 0 0 0 24.65625 27.90625 A 1.0001 1.0001 0 0 0 23.96875 28.96875 L 20.40625 39.65625 C 20.337959 39.862131 20.124377 40 19.90625 40 C 19.557575 40 19.353015 39.713655 19.4375 39.375 L 21.96875 29.25 L 22 29.125 L 22 29 L 22 21.5625 L 22 20.84375 L 21.34375 20.625 L 12.8125 17.59375 C 12.495224 17.480631 12.331231 17.162556 12.4375 16.84375 C 12.518672 16.600234 12.706269 16.45165 12.9375 16.4375 z" overflow="visible" font-family="Sans"/>
</svg>
