<svg width="50" height="50" viewBox="0 0 50 50" fill="none" xmlns="http://www.w3.org/2000/svg">
<path d="M25 2C12.3093 2 2 12.3093 2 25C2 37.6907 12.3093 48 25 48C37.6907 48 48 37.6907 48 25C48 12.3093 37.6907 2 25 2ZM25 4C36.6098 4 46 13.3902 46 25C46 36.6098 36.6098 46 25 46C13.3902 46 4 36.6098 4 25C4 13.3902 13.3902 4 25 4ZM25 7C22.8027 7 21 8.80267 21 11C21 13.1973 22.8027 15 25 15C27.1973 15 29 13.1973 29 11C29 8.80267 27.1973 7 25 7ZM25 9C26.1167 9 27 9.88333 27 11C27 12.1167 26.1167 13 25 13C23.8833 13 23 12.1167 23 11C23 9.88333 23.8833 9 25 9ZM12.8125 14.4375C11.7965 14.515 10.8686 15.1755 10.5312 16.1875C10.0875 17.5187 10.8043 18.9979 12.125 19.4688L20 22.2812V28.875L17.5 38.9062C17.1125 40.4596 18.3049 42 19.9062 42C20.9781 42 21.9435 41.2994 22.2812 40.2812L25 32.125L27.7188 40.2812C28.0565 41.2994 29.0219 42 30.0938 42C31.6951 42 32.8875 40.4596 32.5 38.9062L30 28.875V22.2812L37.875 19.4688C39.1957 18.9979 39.9125 17.5187 39.4688 16.1875C39.019 14.8382 37.5056 14.1127 36.1562 14.5625L28.875 17H25.1562H25H24.9062H21.125L13.8438 14.5625C13.5064 14.4501 13.1512 14.4117 12.8125 14.4375ZM12.9375 16.4375C13.0146 16.4328 13.1063 16.4417 13.1875 16.4688L20.6875 18.9375L20.8438 19H21H24.8438H25H25.0938H29H29.1562L29.3125 18.9375L36.8125 16.4688C37.1372 16.3605 37.4543 16.5191 37.5625 16.8438C37.6688 17.1626 37.5048 17.4806 37.1875 17.5938L28.6562 20.625L28 20.8438V21.5625V29V29.125L28.0312 29.25L30.5625 39.375C30.647 39.7137 30.4424 40 30.0938 40C29.8756 40 29.662 39.8621 29.5938 39.6562L26.0312 29.0312C26.0327 29 26.0327 28.9687 26.0312 28.9375C26.0499 28.6868 25.9735 28.4382 25.8171 28.2413C25.6607 28.0444 25.4359 27.9136 25.1875 27.875C25.1771 27.8748 25.1667 27.8748 25.1562 27.875C25.1051 27.8604 25.0528 27.85 25 27.8438C24.9896 27.8436 24.9792 27.8436 24.9688 27.8438C24.9159 27.85 24.8637 27.8604 24.8125 27.875C24.7597 27.8812 24.7074 27.8917 24.6562 27.9062C24.4367 27.9769 24.2484 28.1213 24.1231 28.3149C23.9978 28.5086 23.9433 28.7395 23.9688 28.9688L20.4062 39.6562C20.338 39.8621 20.1244 40 19.9062 40C19.5576 40 19.353 39.7137 19.4375 39.375L21.9688 29.25L22 29.125V29V21.5625V20.8438L21.3438 20.625L12.8125 17.5938C12.4952 17.4806 12.3312 17.1626 12.4375 16.8438C12.5187 16.6002 12.7063 16.4517 12.9375 16.4375Z" fill="#6D5682"/>
</svg>
