<svg width="398" height="398" viewBox="0 0 398 398" fill="none" xmlns="http://www.w3.org/2000/svg">
<path d="M199 394.02C306.699 394.02 394.02 306.699 394.02 199C394.02 91.3012 306.699 3.98 199 3.98C91.3012 3.98 3.97998 91.3012 3.97998 199C3.97998 306.699 91.3012 394.02 199 394.02ZM80.6348 194.582L117.171 145.628C118.564 143.758 120.753 142.683 123.101 142.683H311.475C315.534 142.683 318.878 145.986 318.878 150.086V247.954C318.878 252.053 315.574 255.357 311.475 255.357H123.062C120.713 255.357 118.524 254.242 117.131 252.412L80.595 203.458C78.6448 200.791 78.6448 197.209 80.6348 194.582Z" fill="#6D5682"/>
<path d="M200.552 224.91H228.81C232.273 224.91 234.78 223.915 234.78 220.174C234.78 216.432 232.273 215.437 228.81 215.437H205.448V202.94H225.467C228.571 202.94 230.999 202.065 230.999 198.403C230.999 194.741 228.532 193.866 225.467 193.866H205.448V182.642H228.253C231.716 182.642 234.223 181.647 234.223 177.906C234.223 174.165 231.716 173.17 228.253 173.17H200.552C196.373 173.17 193.667 174.841 193.667 180.055V218.024C193.667 223.238 196.413 224.91 200.552 224.91Z" fill="#6D5682"/>
<path d="M163.459 217.467C151.519 217.467 153.19 208.114 146.782 208.114C143.917 208.114 141.807 210.144 141.807 213.01C141.807 218.621 148.494 226.104 163.459 226.104C177.707 226.104 184.752 219.139 184.752 209.786C184.752 203.736 182.045 197.328 171.22 194.901L161.349 192.672C157.608 191.796 153.31 190.642 153.31 187.06C153.31 183.438 156.334 180.931 161.787 180.931C172.812 180.931 171.777 188.612 177.269 188.612C180.135 188.612 182.642 186.901 182.642 183.956C182.642 177.03 171.777 171.856 162.583 171.856C152.593 171.856 141.927 176.155 141.927 187.657C141.927 193.189 143.877 199.119 154.583 201.826L167.876 205.209C171.896 206.204 172.931 208.512 172.931 210.582C172.971 214.124 169.588 217.467 163.459 217.467Z" fill="#6D5682"/>
<path d="M266.501 226.104C284.212 226.104 292.689 212.93 292.689 198.363C292.689 183.199 283.495 171.896 266.501 171.896C249.546 171.896 240.312 183.16 240.312 198.363C240.352 214.044 247.954 226.104 266.501 226.104ZM266.501 181.369C276.132 181.369 280.869 188.413 280.869 198.323C280.869 208.234 277.207 216.592 266.501 216.592C255.436 216.592 252.133 208.234 252.133 198.323C252.133 188.413 256.869 181.369 266.501 181.369Z" fill="#6D5682"/>
<path d="M116.097 208.234C121.196 208.234 125.33 204.1 125.33 199C125.33 193.9 121.196 189.766 116.097 189.766C110.997 189.766 106.863 193.9 106.863 199C106.863 204.1 110.997 208.234 116.097 208.234Z" fill="#6D5682"/>
</svg>
