<svg id="visual" viewBox="0 0 1400 600" width="1400" height="600" xmlns="http://www.w3.org/2000/svg" xmlns:xlink="http://www.w3.org/1999/xlink" version="1.1"><path d="M0 43L280 43L560 43L840 43L1120 43L1400 49L1400 0L1120 0L840 0L560 0L280 0L0 0Z" fill="#ff304f"></path><path d="M0 97L280 97L560 97L840 91L1120 91L1400 103L1400 47L1120 41L840 41L560 41L280 41L0 41Z" fill="#d61b64"></path><path d="M0 169L280 169L560 163L840 157L1120 163L1400 163L1400 101L1120 89L840 89L560 95L280 95L0 95Z" fill="#a61f6c"></path><path d="M0 325L280 307L560 313L840 301L1120 301L1400 319L1400 161L1120 161L840 155L560 161L280 167L0 167Z" fill="#722567"></path><path d="M0 463L280 451L560 445L840 451L1120 451L1400 445L1400 317L1120 299L840 299L560 311L280 305L0 323Z" fill="#422355"></path><path d="M0 547L280 541L560 541L840 547L1120 547L1400 541L1400 443L1120 449L840 449L560 443L280 449L0 461Z" fill="#1b1a3a"></path><path d="M0 601L280 601L560 601L840 601L1120 601L1400 601L1400 539L1120 545L840 545L560 539L280 539L0 545Z" fill="#00071b"></path></svg>